STARTFONT 2.1
COMMENT
COMMENT Converted from OpenType font "BeVietnam-Bold.ttf" by "otf2bdf 3.0".
COMMENT
FONT -FreeType-Be Vietnam-Bold-R-Normal--28-200-100-100-P-137-ISO10646-1
SIZE 20 100 100
FONTBOUNDINGBOX 44 39 -13 -7
STARTPROPERTIES 19
FOUNDRY "FreeType"
FAMILY_NAME "Be Vietnam"
WEIGHT_NAME "Bold"
SLANT "R"
SETWIDTH_NAME "Normal"
ADD_STYLE_NAME ""
PIXEL_SIZE 28
POINT_SIZE 200
RESOLUTION_X 100
RESOLUTION_Y 100
SPACING "P"
AVERAGE_WIDTH 137
CHARSET_REGISTRY "ISO10646"
CHARSET_ENCODING "1"
FONT_ASCENT 33
FONT_DESCENT 7
COPYRIGHT "Copyright 2019 The Bevietnam Project Authors (https://github.com/bettergui/beVietnam)"
_OTF_FONTFILE "BeVietnam-Bold.ttf"
_OTF_PSNAME "BeVietnam-Bold"
ENDPROPERTIES
CHARS 445
STARTCHAR 000D
ENCODING 13
SWIDTH 576 0
DWIDTH 16 0
BBX 0 0 0 0
BITMAP
ENDCHAR
STARTCHAR 0020
ENCODING 32
SWIDTH 216 0
DWIDTH 6 0
BBX 0 0 0 0
BITMAP
ENDCHAR
STARTCHAR 0021
ENCODING 33
SWIDTH 252 0
DWIDTH 7 0
BBX 4 20 2 0
BITMAP
F0
F0
F0
F0
F0
F0
F0
F0
E0
E0
E0
E0
E0
E0
00
00
60
F0
F0
E0
ENDCHAR
STARTCHAR 0022
ENCODING 34
SWIDTH 504 0
DWIDTH 14 0
BBX 11 8 2 13
BITMAP
2040
61C0
C100
8300
C380
F3E0
F3E0
F1E0
ENDCHAR
STARTCHAR 0023
ENCODING 35
SWIDTH 864 0
DWIDTH 24 0
BBX 20 19 2 0
BITMAP
01C3C0
01C380
01C380
01C380
03C380
3FFFF0
3FFFF0
038700
078700
070F00
070E00
070E00
7FFFE0
FFFFE0
0E1E00
0E1C00
0E1C00
0E1C00
1E3C00
ENDCHAR
STARTCHAR 0024
ENCODING 36
SWIDTH 576 0
DWIDTH 16 0
BBX 15 23 1 -2
BITMAP
0100
0100
0FE0
3FF8
7FF8
797C
713C
711C
7900
7F00
3FE0
1FF8
07FC
017C
011E
F11E
F91E
7D3C
7FFC
3FF8
0FE0
0100
0100
ENDCHAR
STARTCHAR 0025
ENCODING 37
SWIDTH 792 0
DWIDTH 22 0
BBX 20 20 1 0
BITMAP
180000
7E0700
FE0F00
E60E00
E71E00
E61C00
7E3C00
7C3800
007800
007000
00F000
00E000
01E1C0
01C3E0
03C770
038630
070630
070770
0E07F0
0E03E0
ENDCHAR
STARTCHAR 0026
ENCODING 38
SWIDTH 648 0
DWIDTH 18 0
BBX 17 20 1 0
BITMAP
03C000
0FF000
1FF800
1F7C00
3C3C00
3C3C00
3C0000
1E0000
1F0000
0F8F00
1F9E00
7FDC00
79FC00
F0F800
F07800
F07C00
F8FE00
7FFF00
7FCF00
1F0780
ENDCHAR
STARTCHAR 0027
ENCODING 39
SWIDTH 288 0
DWIDTH 8 0
BBX 5 8 2 14
BITMAP
60
F0
F8
F8
18
10
30
60
ENDCHAR
STARTCHAR 0028
ENCODING 40
SWIDTH 468 0
DWIDTH 13 0
BBX 8 28 3 -6
BITMAP
03
06
0E
1C
3C
38
78
70
70
F0
F0
F0
F0
F0
F0
F0
F0
F0
F0
70
78
38
38
1C
1C
0E
07
03
ENDCHAR
STARTCHAR 0029
ENCODING 41
SWIDTH 540 0
DWIDTH 15 0
BBX 8 28 4 -6
BITMAP
E0
70
38
38
1C
1C
1E
0E
0F
0F
0F
07
07
07
07
07
07
0F
0F
0F
0E
1E
1C
1C
38
70
60
40
ENDCHAR
STARTCHAR 002A
ENCODING 42
SWIDTH 504 0
DWIDTH 14 0
BBX 10 10 2 11
BITMAP
0C00
0C00
6DC0
7F80
1F00
3F00
FFC0
4C80
0C00
0C00
ENDCHAR
STARTCHAR 002B
ENCODING 43
SWIDTH 576 0
DWIDTH 16 0
BBX 12 12 2 3
BITMAP
0700
0700
0700
0700
0700
FFF0
FFF0
FFF0
0700
0700
0700
0700
ENDCHAR
STARTCHAR 002C
ENCODING 44
SWIDTH 288 0
DWIDTH 8 0
BBX 5 9 2 -5
BITMAP
60
F0
F8
F8
38
18
10
30
60
ENDCHAR
STARTCHAR 002D
ENCODING 45
SWIDTH 576 0
DWIDTH 16 0
BBX 10 3 3 7
BITMAP
FFC0
FFC0
FFC0
ENDCHAR
STARTCHAR 002E
ENCODING 46
SWIDTH 288 0
DWIDTH 8 0
BBX 5 4 2 0
BITMAP
70
F8
F8
70
ENDCHAR
STARTCHAR 002F
ENCODING 47
SWIDTH 504 0
DWIDTH 14 0
BBX 13 27 1 -5
BITMAP
0078
0078
0070
00F0
00F0
00E0
01E0
01E0
01C0
03C0
0380
0780
0780
0700
0F00
0F00
0E00
1E00
1E00
1C00
3C00
3C00
3800
7800
7000
7000
F000
ENDCHAR
STARTCHAR 0030
ENCODING 48
SWIDTH 612 0
DWIDTH 17 0
BBX 15 20 1 0
BITMAP
07C0
1FF0
3FF8
7FFC
783C
783E
F81E
F01E
F01E
F01E
F01E
F01E
F01E
F81E
F83E
783C
7C7C
3FF8
3FF8
0FE0
ENDCHAR
STARTCHAR 0031
ENCODING 49
SWIDTH 504 0
DWIDTH 14 0
BBX 12 19 2 0
BITMAP
1F00
3F00
7F00
FF00
FF00
EF00
CF00
0F00
0F00
0F00
0F00
0F00
0F00
0F00
0F00
0F00
FFF0
FFF0
FFF0
ENDCHAR
STARTCHAR 0032
ENCODING 50
SWIDTH 576 0
DWIDTH 16 0
BBX 13 20 2 0
BITMAP
0F80
3FE0
7FF0
FDF0
F078
E078
E078
0078
0070
00F0
01E0
03C0
0780
1F00
3E00
7C00
F800
FFF8
FFF8
FFF8
ENDCHAR
STARTCHAR 0033
ENCODING 51
SWIDTH 576 0
DWIDTH 16 0
BBX 14 20 1 0
BITMAP
0FC0
1FF0
3FF8
7C7C
783C
F03C
003C
003C
03F8
03F0
03F0
0078
003C
003C
F03C
F03C
7C7C
7FF8
3FF8
1FE0
ENDCHAR
STARTCHAR 0034
ENCODING 52
SWIDTH 612 0
DWIDTH 17 0
BBX 15 19 1 0
BITMAP
01F0
03F0
03F0
07F0
0F70
0F70
1E70
3C70
3C70
7870
7070
FFFE
FFFE
FFFE
0070
0070
0070
0070
0070
ENDCHAR
STARTCHAR 0035
ENCODING 53
SWIDTH 576 0
DWIDTH 16 0
BBX 14 19 1 0
BITMAP
7FF8
7FF8
7FF8
7000
7000
7000
73E0
7FF8
7FF8
787C
783C
003C
001C
F03C
783C
7C7C
3FF8
1FF0
0FE0
ENDCHAR
STARTCHAR 0036
ENCODING 54
SWIDTH 576 0
DWIDTH 16 0
BBX 14 19 1 0
BITMAP
03C0
0780
0F00
0E00
1E00
3C00
39C0
7FF0
7FF8
787C
F03C
F03C
F01C
F03C
F03C
787C
7FF8
3FF0
0FE0
ENDCHAR
STARTCHAR 0037
ENCODING 55
SWIDTH 504 0
DWIDTH 14 0
BBX 13 19 1 0
BITMAP
FFF8
FFF8
FFF8
0078
0070
00F0
00E0
01E0
01E0
03C0
03C0
0780
0780
0F00
0F00
1E00
1E00
3C00
3C00
ENDCHAR
STARTCHAR 0038
ENCODING 56
SWIDTH 576 0
DWIDTH 16 0
BBX 15 20 1 0
BITMAP
07C0
1FF0
3FF8
7C7C
783C
781C
781C
783C
3C78
1FF0
1FF8
7C7C
783C
701E
F01E
F81E
783C
7FFC
3FF8
1FF0
ENDCHAR
STARTCHAR 0039
ENCODING 57
SWIDTH 576 0
DWIDTH 16 0
BBX 14 20 1 0
BITMAP
07C0
1FF0
3FF8
7C78
F83C
F03C
F01C
F01C
F03C
783C
7FFC
3FF8
1FF8
0070
00F0
01E0
03C0
03C0
0780
0F00
ENDCHAR
STARTCHAR 003A
ENCODING 58
SWIDTH 324 0
DWIDTH 9 0
BBX 5 15 2 0
BITMAP
20
F0
F8
F0
60
00
00
00
00
00
00
70
F0
F8
70
ENDCHAR
STARTCHAR 003B
ENCODING 59
SWIDTH 324 0
DWIDTH 9 0
BBX 5 20 3 -5
BITMAP
60
F0
F0
F0
60
00
00
00
00
00
00
60
F0
F0
F8
38
10
30
60
40
ENDCHAR
STARTCHAR 003C
ENCODING 60
SWIDTH 576 0
DWIDTH 16 0
BBX 10 12 3 3
BITMAP
00C0
03C0
0FC0
3F80
FE00
F000
F800
FE00
3F80
0FC0
03C0
00C0
ENDCHAR
STARTCHAR 003D
ENCODING 61
SWIDTH 684 0
DWIDTH 19 0
BBX 13 9 3 4
BITMAP
FFF8
FFF8
FFF8
0000
0000
0000
FFF8
FFF8
FFF8
ENDCHAR
STARTCHAR 003E
ENCODING 62
SWIDTH 576 0
DWIDTH 16 0
BBX 10 12 3 3
BITMAP
C000
F000
FC00
7F00
1FC0
03C0
07C0
1FC0
7F00
FC00
F000
C000
ENDCHAR
STARTCHAR 003F
ENCODING 63
SWIDTH 576 0
DWIDTH 16 0
BBX 14 20 1 0
BITMAP
07C0
1FF0
3FF8
7FF8
787C
F83C
F03C
003C
0078
00F0
01F0
03C0
07C0
0780
0000
0000
0300
0780
0780
0780
ENDCHAR
STARTCHAR 0040
ENCODING 64
SWIDTH 1008 0
DWIDTH 28 0
BBX 24 25 2 -5
BITMAP
007C00
03FFC0
07FFF0
1F80F8
1C003C
38001C
70000E
70FB8E
E1FF87
E1C787
E3C387
E38387
E38387
E38387
E3C387
E1E7CE
71FDFC
70F8F8
780000
3C0000
1E0000
0FC000
07FFE0
01FFE0
000FE0
ENDCHAR
STARTCHAR 0041
ENCODING 65
SWIDTH 648 0
DWIDTH 18 0
BBX 17 19 1 0
BITMAP
03E000
03E000
03E000
07F000
077000
0F7000
0F7800
0E3800
1E3800
1E3C00
1C1C00
3FFE00
3FFE00
3FFE00
780F00
780F00
700F00
F00780
F00780
ENDCHAR
STARTCHAR 0042
ENCODING 66
SWIDTH 612 0
DWIDTH 17 0
BBX 14 19 2 0
BITMAP
FFE0
FFF0
FFF8
E078
E038
E038
E078
E0F0
FFE0
FFF0
E0F8
E03C
E01C
E01C
E03C
E07C
FFFC
FFF8
FFE0
ENDCHAR
STARTCHAR 0043
ENCODING 67
SWIDTH 684 0
DWIDTH 19 0
BBX 17 20 1 0
BITMAP
01E000
0FFC00
1FFE00
3FFF00
3C0F00
780780
780780
F00000
F00000
F00000
F00000
F00000
F00000
780380
780780
7C0F80
3E1F00
1FFE00
0FFC00
07F800
ENDCHAR
STARTCHAR 0044
ENCODING 68
SWIDTH 648 0
DWIDTH 18 0
BBX 16 19 2 0
BITMAP
FFE0
FFF8
FFFC
E07C
E03E
E01E
E01F
E00F
E00F
E00F
E00F
E00F
E01E
E01E
E03E
E1FC
FFF8
FFF0
FFC0
ENDCHAR
STARTCHAR 0045
ENCODING 69
SWIDTH 540 0
DWIDTH 15 0
BBX 12 19 2 0
BITMAP
FFF0
FFF0
FFF0
E000
E000
E000
E000
E000
FFE0
FFE0
FFE0
E000
E000
E000
E000
E000
FFF0
FFF0
FFF0
ENDCHAR
STARTCHAR 0046
ENCODING 70
SWIDTH 504 0
DWIDTH 14 0
BBX 12 19 2 0
BITMAP
FFF0
FFF0
FFF0
F000
F000
F000
F000
F000
FFE0
FFE0
FFE0
F000
F000
F000
F000
F000
F000
F000
F000
ENDCHAR
STARTCHAR 0047
ENCODING 71
SWIDTH 684 0
DWIDTH 19 0
BBX 17 20 1 0
BITMAP
01E000
0FFC00
1FFE00
3FFF00
3C0F00
780780
780780
F00000
F00000
F03F80
F03F80
F03F80
F00380
780380
780780
7C0780
3E0F80
1FFD80
0FF980
07F180
ENDCHAR
STARTCHAR 0048
ENCODING 72
SWIDTH 648 0
DWIDTH 18 0
BBX 15 19 2 0
BITMAP
E01E
E01E
E01E
E01E
E01E
E01E
E01E
E01E
FFFE
FFFE
FFFE
E01E
E01E
E01E
E01E
E01E
E01E
E01E
E01E
ENDCHAR
STARTCHAR 0049
ENCODING 73
SWIDTH 252 0
DWIDTH 7 0
BBX 4 19 2 0
BITMAP
F0
F0
F0
F0
F0
F0
F0
F0
F0
F0
F0
F0
F0
F0
F0
F0
F0
F0
F0
ENDCHAR
STARTCHAR 004A
ENCODING 74
SWIDTH 360 0
DWIDTH 10 0
BBX 7 19 1 0
BITMAP
1E
1E
1E
1E
1E
1E
1E
1E
1E
1E
1E
1E
1E
1E
1E
1E
FE
FE
F8
ENDCHAR
STARTCHAR 004B
ENCODING 75
SWIDTH 648 0
DWIDTH 18 0
BBX 15 19 2 0
BITMAP
E07C
E078
E0F0
E1E0
E3C0
E7C0
EF80
FF00
FF00
FF80
FF80
F3C0
E3E0
E1E0
E0F0
E0F8
E078
E03C
E03E
ENDCHAR
STARTCHAR 004C
ENCODING 76
SWIDTH 504 0
DWIDTH 14 0
BBX 12 19 2 0
BITMAP
E000
E000
E000
E000
E000
E000
E000
E000
E000
E000
E000
E000
E000
E000
E000
E000
FFF0
FFF0
FFF0
ENDCHAR
STARTCHAR 004D
ENCODING 77
SWIDTH 828 0
DWIDTH 23 0
BBX 20 19 2 0
BITMAP
FC03F0
FC07F0
FC07F0
FE07F0
FE0FF0
EE0FF0
EF1EF0
EF1EF0
E79EF0
E7BCF0
E7BCF0
E3FCF0
E3F8F0
E3F8F0
E1F8F0
E1F0F0
E0F0F0
E0E0F0
E0E0F0
ENDCHAR
STARTCHAR 004E
ENCODING 78
SWIDTH 684 0
DWIDTH 19 0
BBX 16 19 2 0
BITMAP
F80F
F80F
FC0F
FC0F
FE0F
FF0F
EF0F
EF8F
E78F
E3CF
E3EF
E1EF
E1FF
E0FF
E07F
E07F
E03F
E03F
E01F
ENDCHAR
STARTCHAR 004F
ENCODING 79
SWIDTH 720 0
DWIDTH 20 0
BBX 18 20 1 0
BITMAP
03F000
0FFC00
1FFE00
3FFF00
7C0F80
7C0780
780780
F807C0
F003C0
F003C0
F003C0
F003C0
F003C0
7807C0
780780
7C0F80
3F3F00
1FFF00
0FFC00
07F800
ENDCHAR
STARTCHAR 0050
ENCODING 80
SWIDTH 576 0
DWIDTH 16 0
BBX 14 19 2 0
BITMAP
FFE0
FFF0
FFF8
E078
E03C
E03C
E03C
E03C
E078
E1F8
FFF0
FFE0
FF80
E000
E000
E000
E000
E000
E000
ENDCHAR
STARTCHAR 0051
ENCODING 81
SWIDTH 720 0
DWIDTH 20 0
BBX 18 21 1 -1
BITMAP
03F000
0FFC00
1FFE00
3FFF00
7C0F80
7C0780
780780
F807C0
F003C0
F003C0
F003C0
F003C0
F1E3C0
78F7C0
787780
7C3F80
3F3F00
1FFF00
0FFE00
07FF00
000780
ENDCHAR
STARTCHAR 0052
ENCODING 82
SWIDTH 576 0
DWIDTH 16 0
BBX 14 19 2 0
BITMAP
FFE0
FFF0
FFF8
E078
E03C
E03C
E03C
E03C
E0F8
FFF8
FFF0
FFC0
E3C0
E1E0
E1F0
E0F0
E078
E078
E03C
ENDCHAR
STARTCHAR 0053
ENCODING 83
SWIDTH 576 0
DWIDTH 16 0
BBX 15 20 1 0
BITMAP
07C0
1FF0
3FF8
7EFC
783C
783C
7800
7800
7F80
3FF0
1FF8
03FC
003E
001E
F81E
F83E
7C7C
7FFC
3FF8
0FE0
ENDCHAR
STARTCHAR 0054
ENCODING 84
SWIDTH 576 0
DWIDTH 16 0
BBX 14 19 1 0
BITMAP
FFFC
FFFC
FFFC
0780
0780
0780
0780
0780
0780
0780
0780
0780
0780
0780
0780
0780
0780
0780
0780
ENDCHAR
STARTCHAR 0055
ENCODING 85
SWIDTH 684 0
DWIDTH 19 0
BBX 15 19 2 0
BITMAP
E00E
E00E
E00E
E00E
E00E
E00E
E00E
E00E
E00E
E00E
E00E
E00E
F01E
F01E
F83E
7EFC
7FFC
3FF8
0FE0
ENDCHAR
STARTCHAR 0056
ENCODING 86
SWIDTH 648 0
DWIDTH 18 0
BBX 17 19 1 0
BITMAP
E00780
F00F00
F00F00
700F00
780E00
781E00
381E00
3C1C00
3C3C00
1C3C00
1E3800
1E7800
0E7800
0F7000
0FF000
0FF000
07E000
07E000
07E000
ENDCHAR
STARTCHAR 0057
ENCODING 87
SWIDTH 972 0
DWIDTH 27 0
BBX 26 19 1 0
BITMAP
E01E03C0
F01E03C0
F03E03C0
F03F0380
703F0780
787F0780
787F8780
78778700
38F38F00
38F3CF00
3CF3CF00
3DE3CE00
1DE1FE00
1DE1FE00
1FC1FE00
1FC0FC00
0FC0FC00
0F80FC00
0F807C00
ENDCHAR
STARTCHAR 0058
ENCODING 88
SWIDTH 648 0
DWIDTH 18 0
BBX 17 19 1 0
BITMAP
F80F80
780F00
3C1E00
3C3E00
1E3C00
0F7800
0F7800
07F000
03E000
03E000
07F000
07F000
0F7800
1E7C00
1E3C00
3C1E00
7C1E00
780F00
F00780
ENDCHAR
STARTCHAR 0059
ENCODING 89
SWIDTH 612 0
DWIDTH 17 0
BBX 16 19 1 0
BITMAP
F00F
781E
781E
3C3C
3C3C
1E78
1E78
0FF0
0FF0
07E0
07E0
03C0
03C0
03C0
03C0
03C0
03C0
03C0
03C0
ENDCHAR
STARTCHAR 005A
ENCODING 90
SWIDTH 612 0
DWIDTH 17 0
BBX 15 19 1 0
BITMAP
FFFE
FFFE
FFFE
003C
007C
00F8
01F0
01E0
03C0
07C0
0F80
1F00
1E00
3C00
7C00
FFFE
FFFE
FFFE
FFFE
ENDCHAR
STARTCHAR 005B
ENCODING 91
SWIDTH 468 0
DWIDTH 13 0
BBX 9 29 2 -6
BITMAP
FF80
FF80
FF80
E000
E000
E000
E000
E000
E000
E000
E000
E000
E000
E000
E000
E000
E000
E000
E000
E000
E000
E000
E000
E000
E000
FF80
FF80
FF80
FF80
ENDCHAR
STARTCHAR 005C
ENCODING 92
SWIDTH 504 0
DWIDTH 14 0
BBX 13 27 1 -5
BITMAP
F000
F000
7000
7800
7800
3800
3C00
3C00
1C00
1E00
1E00
0E00
0F00
0F00
0700
0780
0380
03C0
03C0
01C0
01E0
01E0
00E0
00F0
00F0
0070
0078
ENDCHAR
STARTCHAR 005D
ENCODING 93
SWIDTH 432 0
DWIDTH 12 0
BBX 9 29 2 -6
BITMAP
FF80
FF80
FF80
0380
0380
0380
0380
0380
0380
0380
0380
0380
0380
0380
0380
0380
0380
0380
0380
0380
0380
0380
0380
0380
0380
FF80
FF80
FF80
FF80
ENDCHAR
STARTCHAR 005E
ENCODING 94
SWIDTH 396 0
DWIDTH 11 0
BBX 10 5 1 16
BITMAP
3E00
7F00
7780
F380
E3C0
ENDCHAR
STARTCHAR 005F
ENCODING 95
SWIDTH 684 0
DWIDTH 19 0
BBX 14 3 3 0
BITMAP
FFFC
FFFC
FFFC
ENDCHAR
STARTCHAR 0060
ENCODING 96
SWIDTH 288 0
DWIDTH 8 0
BBX 6 6 1 17
BITMAP
F0
70
78
38
3C
1C
ENDCHAR
STARTCHAR 0061
ENCODING 97
SWIDTH 612 0
DWIDTH 17 0
BBX 14 15 1 0
BITMAP
1F3C
3FBC
7FFC
7C7C
F83C
F03C
F03C
F03C
F03C
F03C
F83C
787C
7FFC
3FFC
1FBC
ENDCHAR
STARTCHAR 0062
ENCODING 98
SWIDTH 612 0
DWIDTH 17 0
BBX 14 21 2 0
BITMAP
E000
E000
E000
E000
E000
E000
E3E0
EFF0
EFF8
F8F8
F07C
F03C
F03C
E03C
E03C
F03C
F07C
F878
EFF8
EFF0
E7E0
ENDCHAR
STARTCHAR 0063
ENCODING 99
SWIDTH 540 0
DWIDTH 15 0
BBX 14 15 1 0
BITMAP
0FC0
1FF0
3FF8
7C78
783C
F03C
F000
F000
F000
F03C
783C
7878
3FF8
3FF0
0FE0
ENDCHAR
STARTCHAR 0064
ENCODING 100
SWIDTH 612 0
DWIDTH 17 0
BBX 14 21 1 0
BITMAP
001C
001C
001C
001C
001C
001C
1F1C
3FDC
7FDC
7C7C
F83C
F03C
F01C
F01C
F01C
F03C
F83C
787C
7FDC
3FDC
1F9C
ENDCHAR
STARTCHAR 0065
ENCODING 101
SWIDTH 576 0
DWIDTH 16 0
BBX 14 15 1 0
BITMAP
0FC0
1FF0
3FF8
7878
7038
F03C
FFFC
FFFC
FFFC
F000
703C
7878
3FF8
3FF0
0FC0
ENDCHAR
STARTCHAR 0066
ENCODING 102
SWIDTH 360 0
DWIDTH 10 0
BBX 9 21 1 0
BITMAP
0200
1F80
3F80
3C00
3C00
3C00
FF80
FF80
FF80
3C00
3C00
3C00
3C00
3C00
3C00
3C00
3C00
3C00
3C00
3C00
3C00
ENDCHAR
STARTCHAR 0067
ENCODING 103
SWIDTH 612 0
DWIDTH 17 0
BBX 15 21 1 -6
BITMAP
0F1E
3FDE
7FDE
7C7E
F83E
F03E
F01E
F01E
F01E
F03E
783E
7CFE
7FDE
3F9E
0F1C
003C
003C
007C
07F8
07F0
07E0
ENDCHAR
STARTCHAR 0068
ENCODING 104
SWIDTH 576 0
DWIDTH 16 0
BBX 13 21 2 0
BITMAP
E000
E000
E000
E000
E000
E000
E3E0
EFF0
EFF0
F8F8
F078
F078
E078
E078
E078
E078
E078
E078
E078
E078
E078
ENDCHAR
STARTCHAR 0069
ENCODING 105
SWIDTH 252 0
DWIDTH 7 0
BBX 4 21 2 0
BITMAP
F0
F0
F0
60
00
00
F0
F0
F0
F0
F0
F0
F0
F0
F0
F0
F0
F0
F0
F0
F0
ENDCHAR
STARTCHAR 006A
ENCODING 106
SWIDTH 252 0
DWIDTH 7 0
BBX 7 27 -1 -6
BITMAP
1E
1E
1E
0C
00
00
1E
1E
1E
1E
1E
1E
1E
1E
1E
1E
1E
1E
1E
1E
1E
1E
1E
1E
FE
FC
FC
ENDCHAR
STARTCHAR 006B
ENCODING 107
SWIDTH 540 0
DWIDTH 15 0
BBX 12 21 2 0
BITMAP
F000
F000
F000
F000
F000
F000
F0F0
F1F0
F3E0
F3C0
F780
FF00
FF00
FF00
FF00
F780
F7C0
F3C0
F1E0
F1F0
F0F0
ENDCHAR
STARTCHAR 006C
ENCODING 108
SWIDTH 324 0
DWIDTH 9 0
BBX 7 21 2 0
BITMAP
F0
F0
F0
F0
F0
F0
F0
F0
F0
F0
F0
F0
F0
F0
F0
F0
F0
F0
FE
FE
7E
ENDCHAR
STARTCHAR 006D
ENCODING 109
SWIDTH 900 0
DWIDTH 25 0
BBX 22 15 2 0
BITMAP
E7C1E0
EFE7F8
EFF7F8
F9FC7C
F0F83C
F0783C
E0783C
E0783C
E0783C
E0783C
E0783C
E0783C
E0783C
E0783C
E0783C
ENDCHAR
STARTCHAR 006E
ENCODING 110
SWIDTH 576 0
DWIDTH 16 0
BBX 13 15 2 0
BITMAP
E3E0
EFF0
EFF0
F8F8
F078
F078
E078
E078
E078
E078
E078
E078
E078
E078
E078
ENDCHAR
STARTCHAR 006F
ENCODING 111
SWIDTH 576 0
DWIDTH 16 0
BBX 14 15 1 0
BITMAP
0FC0
1FF0
3FF8
7C78
783C
F03C
F03C
F03C
F03C
F03C
783C
7878
3FF8
3FF0
0FC0
ENDCHAR
STARTCHAR 0070
ENCODING 112
SWIDTH 612 0
DWIDTH 17 0
BBX 14 21 2 -6
BITMAP
E3E0
EFF0
EFF8
F8F8
F07C
F03C
F03C
E03C
E03C
F03C
F07C
F878
EFF8
EFF0
E7E0
E000
E000
E000
E000
E000
E000
ENDCHAR
STARTCHAR 0071
ENCODING 113
SWIDTH 612 0
DWIDTH 17 0
BBX 15 21 1 -6
BITMAP
0F9E
3FDE
7FFE
7C7E
783E
F83E
F01E
F01E
F01E
F01E
783E
7C7E
7FFE
3FDE
1F9E
001E
001E
001E
001E
001E
001E
ENDCHAR
STARTCHAR 0072
ENCODING 114
SWIDTH 360 0
DWIDTH 10 0
BBX 9 15 2 0
BITMAP
F380
FF00
FF00
FF00
F800
F000
F000
F000
F000
F000
F000
F000
F000
F000
F000
ENDCHAR
STARTCHAR 0073
ENCODING 115
SWIDTH 468 0
DWIDTH 13 0
BBX 12 15 1 0
BITMAP
1F80
3FC0
7FE0
71E0
F0F0
7800
7F00
3FC0
0FE0
00F0
F0F0
F0F0
7FE0
7FE0
1F80
ENDCHAR
STARTCHAR 0074
ENCODING 116
SWIDTH 396 0
DWIDTH 11 0
BBX 9 19 1 0
BITMAP
3C00
3C00
3C00
3C00
FF80
FF80
FF80
3C00
3C00
3C00
3C00
3C00
3C00
3C00
3C00
3C00
3F80
1F80
0F80
ENDCHAR
STARTCHAR 0075
ENCODING 117
SWIDTH 576 0
DWIDTH 16 0
BBX 13 15 2 0
BITMAP
E078
E078
E078
E078
E078
E078
E078
E078
E078
E078
F078
F0F8
FFF8
7F78
3E78
ENDCHAR
STARTCHAR 0076
ENCODING 118
SWIDTH 540 0
DWIDTH 15 0
BBX 14 15 1 0
BITMAP
E03C
F03C
F038
7078
7878
7870
38F0
3CF0
3CE0
1DE0
1DE0
1FC0
0FC0
0FC0
0F80
ENDCHAR
STARTCHAR 0077
ENCODING 119
SWIDTH 792 0
DWIDTH 22 0
BBX 21 15 1 0
BITMAP
E07038
E0F078
F0F878
F0F878
70F870
71FC70
79DCF0
79DCE0
3BDCE0
3B9EE0
3F8FE0
3F8FC0
1F8FC0
1F07C0
1F07C0
ENDCHAR
STARTCHAR 0078
ENCODING 120
SWIDTH 540 0
DWIDTH 15 0
BBX 14 15 1 0
BITMAP
F07C
F878
78F0
3CF0
3DE0
1FE0
1FC0
0F80
0FC0
1FC0
3DE0
3CF0
78F0
7878
F07C
ENDCHAR
STARTCHAR 0079
ENCODING 121
SWIDTH 540 0
DWIDTH 15 0
BBX 14 21 1 -6
BITMAP
F03C
F03C
F078
7078
7870
78F0
38F0
3CE0
1DE0
1DE0
1FC0
0FC0
0F80
0F80
0780
0700
0F00
1E00
FE00
FC00
F800
ENDCHAR
STARTCHAR 007A
ENCODING 122
SWIDTH 468 0
DWIDTH 13 0
BBX 12 15 1 0
BITMAP
7FF0
7FF0
7FF0
01E0
01E0
03C0
0780
0F00
1E00
3E00
3C00
7800
FFF0
FFF0
FFF0
ENDCHAR
STARTCHAR 007B
ENCODING 123
SWIDTH 432 0
DWIDTH 12 0
BBX 9 31 2 -7
BITMAP
0180
0F80
1F80
1C00
3C00
3C00
3C00
3C00
3C00
3C00
3C00
3C00
3C00
3800
3800
F000
F800
3800
3C00
3C00
3C00
3C00
3C00
3C00
3C00
3C00
3C00
3C00
1F80
1F80
0780
ENDCHAR
STARTCHAR 007C
ENCODING 124
SWIDTH 288 0
DWIDTH 8 0
BBX 3 33 3 -7
BITMAP
E0
E0
E0
E0
E0
E0
E0
E0
E0
E0
E0
E0
E0
E0
E0
E0
E0
E0
E0
E0
E0
E0
E0
E0
E0
E0
E0
E0
E0
E0
E0
E0
E0
ENDCHAR
STARTCHAR 007D
ENCODING 125
SWIDTH 432 0
DWIDTH 12 0
BBX 9 31 2 -7
BITMAP
E000
FC00
FC00
1E00
0E00
0E00
0E00
0E00
0E00
0E00
0E00
0E00
0E00
0E00
0F00
0380
0F80
0E00
0E00
0E00
0E00
0E00
0E00
0E00
0E00
0E00
0E00
1E00
FC00
FC00
F000
ENDCHAR
STARTCHAR 007E
ENCODING 126
SWIDTH 576 0
DWIDTH 16 0
BBX 11 3 3 9
BITMAP
7CE0
FFC0
C7C0
ENDCHAR
STARTCHAR 00A0
ENCODING 160
SWIDTH 216 0
DWIDTH 6 0
BBX 0 0 0 0
BITMAP
ENDCHAR
STARTCHAR 00A1
ENCODING 161
SWIDTH 252 0
DWIDTH 7 0
BBX 4 21 2 -7
BITMAP
60
F0
F0
F0
00
00
00
E0
E0
E0
E0
E0
E0
F0
F0
F0
F0
F0
F0
F0
F0
ENDCHAR
STARTCHAR 00A2
ENCODING 162
SWIDTH 576 0
DWIDTH 16 0
BBX 14 19 1 -2
BITMAP
0300
0300
0FC0
1FF0
3FF8
7F78
7B3C
F33C
F300
F300
F300
F33C
7B3C
7B78
3FF8
3FF0
0FE0
0300
0300
ENDCHAR
STARTCHAR 00A3
ENCODING 163
SWIDTH 612 0
DWIDTH 17 0
BBX 15 20 1 0
BITMAP
07C0
1FF0
3FF8
7C7C
783C
783E
7800
7C00
7C00
3E00
1F00
FFE0
FFE0
0F00
0E00
0E00
3800
FFFE
FFFE
FFFE
ENDCHAR
STARTCHAR 00A4
ENCODING 164
SWIDTH 612 0
DWIDTH 17 0
BBX 14 16 2 2
BITMAP
4000
E318
FFFC
7FF8
78F0
F038
E038
E01C
E01C
E038
E038
7878
7FF8
FFFC
EF9C
4008
ENDCHAR
STARTCHAR 00A5
ENCODING 165
SWIDTH 648 0
DWIDTH 18 0
BBX 16 19 1 0
BITMAP
F00F
781E
781E
3C3C
3C3C
1E78
1E78
0FF0
0FF0
07E0
07E0
1FF8
1FF8
03C0
1FF8
1FF8
03C0
03C0
03C0
ENDCHAR
STARTCHAR 00A6
ENCODING 166
SWIDTH 288 0
DWIDTH 8 0
BBX 3 33 3 -7
BITMAP
E0
E0
E0
E0
E0
E0
E0
E0
E0
E0
E0
E0
E0
E0
E0
00
00
00
00
E0
E0
E0
E0
E0
E0
E0
E0
E0
E0
E0
E0
E0
E0
ENDCHAR
STARTCHAR 00A7
ENCODING 167
SWIDTH 540 0
DWIDTH 15 0
BBX 13 20 1 0
BITMAP
0F80
3FE0
7FF0
78F0
7878
7C00
3FC0
7FF0
FFF8
F078
F038
7E78
3FF8
1FF0
01F0
F078
7878
7FF0
3FF0
1FC0
ENDCHAR
STARTCHAR 00A8
ENCODING 168
SWIDTH 468 0
DWIDTH 13 0
BBX 11 4 1 17
BITMAP
F1E0
F1E0
F1E0
60C0
ENDCHAR
STARTCHAR 00A9
ENCODING 169
SWIDTH 792 0
DWIDTH 22 0
BBX 20 20 1 0
BITMAP
007000
07FE00
0FFF80
1C03C0
3800E0
70F8E0
63FC70
630E70
E70730
E60030
E60030
E60030
E70630
638E70
71FC60
70F0E0
3801C0
1E0780
0FFF00
03FE00
ENDCHAR
STARTCHAR 00AA
ENCODING 170
SWIDTH 144 0
DWIDTH 4 0
BBX 4 4 0 11
BITMAP
50
F0
D0
F0
ENDCHAR
STARTCHAR 00AB
ENCODING 171
SWIDTH 684 0
DWIDTH 19 0
BBX 17 12 1 3
BITMAP
078380
0F0700
0E0F00
1C1E00
3C3C00
787800
F0F000
787800
3C3C00
1E1E00
0E0F00
078780
ENDCHAR
STARTCHAR 00AC
ENCODING 172
SWIDTH 648 0
DWIDTH 18 0
BBX 14 8 2 7
BITMAP
FFFC
FFFC
FFFC
001C
001C
001C
001C
001C
ENDCHAR
STARTCHAR 00AD
ENCODING 173
SWIDTH 576 0
DWIDTH 16 0
BBX 10 3 3 7
BITMAP
FFC0
FFC0
FFC0
ENDCHAR
STARTCHAR 00AE
ENCODING 174
SWIDTH 324 0
DWIDTH 9 0
BBX 7 7 1 12
BITMAP
7C
52
AA
BA
4A
7C
10
ENDCHAR
STARTCHAR 00AF
ENCODING 175
SWIDTH 360 0
DWIDTH 10 0
BBX 9 2 1 18
BITMAP
FF80
FF80
ENDCHAR
STARTCHAR 00B0
ENCODING 176
SWIDTH 324 0
DWIDTH 9 0
BBX 6 6 2 18
BITMAP
F8
D8
8C
D8
F8
30
ENDCHAR
STARTCHAR 00B1
ENCODING 177
SWIDTH 576 0
DWIDTH 16 0
BBX 11 17 3 0
BITMAP
0E00
0E00
0E00
0E00
0E00
FFE0
FFE0
FFE0
0E00
0E00
0E00
0E00
0000
0000
0000
FFE0
FFE0
ENDCHAR
STARTCHAR 00B2
ENCODING 178
SWIDTH 288 0
DWIDTH 8 0
BBX 7 10 1 11
BITMAP
7C
FC
C6
C6
0C
1C
38
70
FE
FE
ENDCHAR
STARTCHAR 00B3
ENCODING 179
SWIDTH 324 0
DWIDTH 9 0
BBX 7 11 1 10
BITMAP
7C
FE
C6
06
1E
1E
06
C6
FE
7E
10
ENDCHAR
STARTCHAR 00B4
ENCODING 180
SWIDTH 288 0
DWIDTH 8 0
BBX 6 6 1 17
BITMAP
1C
3C
38
70
70
E0
ENDCHAR
STARTCHAR 00B5
ENCODING 181
SWIDTH 648 0
DWIDTH 18 0
BBX 16 21 1 -6
BITMAP
F078
F078
F078
F078
F078
F078
F078
F078
F078
F078
F878
F8F8
FFFF
FFBF
FF1F
F000
F000
F000
F000
F000
F000
ENDCHAR
STARTCHAR 00B6
ENCODING 182
SWIDTH 540 0
DWIDTH 15 0
BBX 14 19 0 0
BITMAP
1FFC
3FFC
7FFC
7FCC
FFCC
FFCC
7FCC
7FCC
3FCC
1FCC
00CC
00CC
00CC
00CC
00CC
00CC
00CC
00CC
00CC
ENDCHAR
STARTCHAR 00B7
ENCODING 183
SWIDTH 288 0
DWIDTH 8 0
BBX 4 4 2 8
BITMAP
70
F0
F0
70
ENDCHAR
STARTCHAR 00B8
ENCODING 184
SWIDTH 252 0
DWIDTH 7 0
BBX 5 7 1 -7
BITMAP
C0
F0
F8
18
18
F8
F0
ENDCHAR
STARTCHAR 00B9
ENCODING 185
SWIDTH 252 0
DWIDTH 7 0
BBX 6 10 1 11
BITMAP
70
F0
F0
B0
30
30
30
30
FC
FC
ENDCHAR
STARTCHAR 00BA
ENCODING 186
SWIDTH 144 0
DWIDTH 4 0
BBX 4 4 0 11
BITMAP
70
D0
D0
70
ENDCHAR
STARTCHAR 00BB
ENCODING 187
SWIDTH 684 0
DWIDTH 19 0
BBX 17 12 1 3
BITMAP
F0F000
787800
3C3C00
1E1E00
0E0F00
070780
078380
0F0700
1E0F00
1C1E00
383C00
787800
ENDCHAR
STARTCHAR 00BC
ENCODING 188
SWIDTH 828 0
DWIDTH 23 0
BBX 21 19 1 0
BITMAP
7801C0
F803C0
F80380
B80780
380F00
380E00
381E00
FE1C00
FE3C00
003870
0070F0
00F0F0
00E1B0
01E130
01C330
0383F8
0783F8
070030
0F0030
ENDCHAR
STARTCHAR 00BD
ENCODING 189
SWIDTH 864 0
DWIDTH 24 0
BBX 23 19 1 0
BITMAP
7800E0
F801E0
F803C0
B80380
380780
380700
380F00
FE1E00
FE1C00
003C78
0038FC
0078EE
00F0CE
00E00C
01E01C
01C078
03C0E0
0380FE
0700FE
ENDCHAR
STARTCHAR 00BE
ENCODING 190
SWIDTH 828 0
DWIDTH 23 0
BBX 22 20 1 0
BITMAP
180000
7E01E0
FE01C0
060380
1E0780
1C0700
060F00
E70E00
FE1C00
7E3C00
183878
007878
0070F8
00E1B8
01E1B8
01C338
03C3FC
0383FC
070038
0F0038
ENDCHAR
STARTCHAR 00BF
ENCODING 191
SWIDTH 576 0
DWIDTH 16 0
BBX 14 20 1 -7
BITMAP
0380
0780
0780
0300
0000
0000
0780
0780
0F00
1E00
3C00
7800
7800
F03C
F03C
7878
7FF8
7FF0
1FE0
0780
ENDCHAR
STARTCHAR 00C0
ENCODING 192
SWIDTH 648 0
DWIDTH 18 0
BBX 17 27 1 0
BITMAP
0E0000
0F0000
070000
078000
038000
000000
000000
000000
03E000
03E000
03E000
07F000
077000
0F7000
0F7800
0E3800
1E3800
1E3C00
1C1C00
3FFE00
3FFE00
3FFE00
780F00
780F00
700F00
F00780
F00780
ENDCHAR
STARTCHAR 00C1
ENCODING 193
SWIDTH 648 0
DWIDTH 18 0
BBX 17 27 1 0
BITMAP
007800
007800
00F000
00E000
01E000
000000
000000
000000
03E000
03E000
03E000
07F000
077000
0F7000
0F7800
0E3800
1E3800
1E3C00
1C1C00
3FFE00
3FFE00
3FFE00
780F00
780F00
700F00
F00780
F00780
ENDCHAR
STARTCHAR 00C2
ENCODING 194
SWIDTH 648 0
DWIDTH 18 0
BBX 17 26 1 0
BITMAP
01C000
03E000
07F000
0F7800
1E3C00
000000
000000
03E000
03E000
03E000
07F000
077000
0F7000
0F7800
0E3800
1E3800
1E3C00
1C1C00
3FFE00
3FFE00
3FFE00
780F00
780F00
700F00
F00780
F00780
ENDCHAR
STARTCHAR 00C3
ENCODING 195
SWIDTH 648 0
DWIDTH 18 0
BBX 17 26 1 0
BITMAP
001800
07B800
0FF800
0CF000
000000
000000
000000
03E000
03E000
03E000
07F000
077000
0F7000
0F7800
0E3800
1E3800
1E3C00
1C1C00
3FFE00
3FFE00
3FFE00
780F00
780F00
700F00
F00780
F00780
ENDCHAR
STARTCHAR 00C4
ENCODING 196
SWIDTH 648 0
DWIDTH 18 0
BBX 17 26 1 0
BITMAP
1E3C00
1E3C00
1E3C00
0C1800
000000
000000
000000
03E000
03E000
03E000
07F000
077000
0F7000
0F7800
0E3800
1E3800
1E3C00
1C1C00
3FFE00
3FFE00
3FFE00
780F00
780F00
700F00
F00780
F00780
ENDCHAR
STARTCHAR 00C5
ENCODING 197
SWIDTH 648 0
DWIDTH 18 0
BBX 17 27 1 0
BITMAP
01C000
03E000
026000
026000
03C000
000000
000000
000000
03E000
03E000
03E000
07F000
077000
0F7000
0F7800
0E3800
1E3800
1E3C00
1C1C00
3FFE00
3FFE00
3FFE00
780F00
780F00
700F00
F00780
F00780
ENDCHAR
STARTCHAR 00C6
ENCODING 198
SWIDTH 936 0
DWIDTH 26 0
BBX 26 19 0 0
BITMAP
007FFFC0
007FFFC0
00FFFFC0
00F78000
01F78000
01E78000
03E78000
03C78000
07C7FF00
0787FF00
0F87FF00
0FFF8000
1FFF8000
1FFF8000
3E078000
3C078000
7C07FFC0
7807FFC0
F807FFC0
ENDCHAR
STARTCHAR 00C7
ENCODING 199
SWIDTH 684 0
DWIDTH 19 0
BBX 17 27 1 -7
BITMAP
01E000
0FFC00
1FFE00
3FFF00
3C0F00
780780
780780
F00000
F00000
F00000
F00000
F00000
F00000
780380
780780
7C0F80
3E1F00
1FFE00
0FFC00
07F800
00C000
01E000
01F000
001800
003800
01F000
01E000
ENDCHAR
STARTCHAR 00C8
ENCODING 200
SWIDTH 540 0
DWIDTH 15 0
BBX 12 27 2 0
BITMAP
7800
3800
3C00
1C00
0E00
0000
0000
0000
FFF0
FFF0
FFF0
E000
E000
E000
E000
E000
FFE0
FFE0
FFE0
E000
E000
E000
E000
E000
FFF0
FFF0
FFF0
ENDCHAR
STARTCHAR 00C9
ENCODING 201
SWIDTH 540 0
DWIDTH 15 0
BBX 12 27 2 0
BITMAP
01E0
01C0
03C0
0380
0700
0000
0000
0000
FFF0
FFF0
FFF0
E000
E000
E000
E000
E000
FFE0
FFE0
FFE0
E000
E000
E000
E000
E000
FFF0
FFF0
FFF0
ENDCHAR
STARTCHAR 00CA
ENCODING 202
SWIDTH 540 0
DWIDTH 15 0
BBX 12 26 2 0
BITMAP
0F00
0F00
1F80
39C0
70E0
0000
0000
FFF0
FFF0
FFF0
E000
E000
E000
E000
E000
FFE0
FFE0
FFE0
E000
E000
E000
E000
E000
FFF0
FFF0
FFF0
ENDCHAR
STARTCHAR 00CB
ENCODING 203
SWIDTH 540 0
DWIDTH 15 0
BBX 12 26 2 0
BITMAP
70E0
78F0
78F0
70E0
0000
0000
0000
FFF0
FFF0
FFF0
E000
E000
E000
E000
E000
FFE0
FFE0
FFE0
E000
E000
E000
E000
E000
FFF0
FFF0
FFF0
ENDCHAR
STARTCHAR 00CC
ENCODING 204
SWIDTH 252 0
DWIDTH 7 0
BBX 7 27 -1 0
BITMAP
F0
70
78
38
1C
00
00
00
1E
1E
1E
1E
1E
1E
1E
1E
1E
1E
1E
1E
1E
1E
1E
1E
1E
1E
1E
ENDCHAR
STARTCHAR 00CD
ENCODING 205
SWIDTH 252 0
DWIDTH 7 0
BBX 7 27 2 0
BITMAP
1E
3C
38
78
70
00
00
00
F0
F0
F0
F0
F0
F0
F0
F0
F0
F0
F0
F0
F0
F0
F0
F0
F0
F0
F0
ENDCHAR
STARTCHAR 00CE
ENCODING 206
SWIDTH 252 0
DWIDTH 7 0
BBX 10 26 -1 0
BITMAP
1C00
3E00
7F00
F780
E3C0
0000
0000
1E00
1E00
1E00
1E00
1E00
1E00
1E00
1E00
1E00
1E00
1E00
1E00
1E00
1E00
1E00
1E00
1E00
1E00
1E00
ENDCHAR
STARTCHAR 00CF
ENCODING 207
SWIDTH 252 0
DWIDTH 7 0
BBX 12 26 -2 0
BITMAP
70E0
F1F0
F1F0
70E0
0000
0000
0000
0F00
0F00
0F00
0F00
0F00
0F00
0F00
0F00
0F00
0F00
0F00
0F00
0F00
0F00
0F00
0F00
0F00
0F00
0F00
ENDCHAR
STARTCHAR 00D0
ENCODING 208
SWIDTH 684 0
DWIDTH 19 0
BBX 18 19 1 0
BITMAP
7FF800
7FFE00
7FFF00
781F00
780F80
780780
780780
7807C0
FF03C0
FF03C0
7807C0
7807C0
780780
780F80
780F80
78FF00
7FFE00
7FFC00
7FF000
ENDCHAR
STARTCHAR 00D1
ENCODING 209
SWIDTH 684 0
DWIDTH 19 0
BBX 16 26 2 0
BITMAP
0030
0FB0
1FF0
19E0
0000
0000
0000
F80F
F80F
FC0F
FC0F
FE0F
FF0F
EF0F
EF8F
E78F
E3CF
E3EF
E1EF
E1FF
E0FF
E07F
E07F
E03F
E03F
E01F
ENDCHAR
STARTCHAR 00D2
ENCODING 210
SWIDTH 720 0
DWIDTH 20 0
BBX 18 27 1 0
BITMAP
0F0000
078000
038000
03C000
01C000
000000
000000
03F000
0FFC00
1FFE00
3FFF00
7C0F80
7C0780
780780
F807C0
F003C0
F003C0
F003C0
F003C0
F003C0
7807C0
780780
7C0F80
3F3F00
1FFF00
0FFC00
07F800
ENDCHAR
STARTCHAR 00D3
ENCODING 211
SWIDTH 720 0
DWIDTH 20 0
BBX 18 27 1 0
BITMAP
003C00
003800
007800
007000
00E000
000000
000000
03F000
0FFC00
1FFE00
3FFF00
7C0F80
7C0780
780780
F807C0
F003C0
F003C0
F003C0
F003C0
F003C0
7807C0
780780
7C0F80
3F3F00
1FFF00
0FFC00
07F800
ENDCHAR
STARTCHAR 00D4
ENCODING 212
SWIDTH 720 0
DWIDTH 20 0
BBX 18 26 1 0
BITMAP
00E000
01F000
03F000
073800
0E1C00
000000
03F000
0FFC00
1FFE00
3FFF00
7C0F80
7C0780
780780
F807C0
F003C0
F003C0
F003C0
F003C0
F003C0
7807C0
780780
7C0F80
3F3F00
1FFF00
0FFC00
07F800
ENDCHAR
STARTCHAR 00D5
ENCODING 213
SWIDTH 720 0
DWIDTH 20 0
BBX 18 26 1 0
BITMAP
011800
07D800
07F800
067800
000000
000000
03F000
0FFC00
1FFE00
3FFF00
7C0F80
7C0780
780780
F807C0
F003C0
F003C0
F003C0
F003C0
F003C0
7807C0
780780
7C0F80
3F3F00
1FFF00
0FFC00
07F800
ENDCHAR
STARTCHAR 00D6
ENCODING 214
SWIDTH 720 0
DWIDTH 20 0
BBX 18 26 1 0
BITMAP
0E1C00
0F1E00
0F1E00
0E1C00
000000
000000
03F000
0FFC00
1FFE00
3FFF00
7C0F80
7C0780
780780
F807C0
F003C0
F003C0
F003C0
F003C0
F003C0
7807C0
780780
7C0F80
3F3F00
1FFF00
0FFC00
07F800
ENDCHAR
STARTCHAR 00D7
ENCODING 215
SWIDTH 576 0
DWIDTH 16 0
BBX 10 10 3 3
BITMAP
2080
71C0
FBC0
7F80
3F00
1F00
3F80
7FC0
F3C0
6180
ENDCHAR
STARTCHAR 00D8
ENCODING 216
SWIDTH 720 0
DWIDTH 20 0
BBX 18 22 1 -1
BITMAP
0003C0
01F380
0FFF80
1FFF00
3FFF00
3E1F80
7C1F80
783FC0
787BC0
F873C0
F0F3C0
F1E3C0
F1C3C0
7BC3C0
7F83C0
7F0780
7F0F80
3F1F80
1FFF00
3FFE00
3BF800
700000
ENDCHAR
STARTCHAR 00D9
ENCODING 217
SWIDTH 684 0
DWIDTH 19 0
BBX 15 27 2 0
BITMAP
1C00
1E00
0E00
0700
0780
0000
0000
0000
E00E
E00E
E00E
E00E
E00E
E00E
E00E
E00E
E00E
E00E
E00E
E00E
F01E
F01E
F83E
7EFC
7FFC
3FF8
0FE0
ENDCHAR
STARTCHAR 00DA
ENCODING 218
SWIDTH 684 0
DWIDTH 19 0
BBX 15 27 2 0
BITMAP
0070
00F0
00E0
01C0
01C0
0000
0000
0000
E00E
E00E
E00E
E00E
E00E
E00E
E00E
E00E
E00E
E00E
E00E
E00E
F01E
F01E
F83E
7EFC
7FFC
3FF8
0FE0
ENDCHAR
STARTCHAR 00DB
ENCODING 219
SWIDTH 684 0
DWIDTH 19 0
BBX 15 26 2 0
BITMAP
0380
07C0
0FE0
1EF0
3C78
0000
0000
E00E
E00E
E00E
E00E
E00E
E00E
E00E
E00E
E00E
E00E
E00E
E00E
F01E
F01E
F83E
7EFC
7FFC
3FF8
0FE0
ENDCHAR
STARTCHAR 00DC
ENCODING 220
SWIDTH 684 0
DWIDTH 19 0
BBX 15 26 2 0
BITMAP
3C38
3C78
3C78
1C38
0000
0000
0000
E00E
E00E
E00E
E00E
E00E
E00E
E00E
E00E
E00E
E00E
E00E
E00E
F01E
F01E
F83E
7EFC
7FFC
3FF8
0FE0
ENDCHAR
STARTCHAR 00DD
ENCODING 221
SWIDTH 612 0
DWIDTH 17 0
BBX 16 27 1 0
BITMAP
0078
0070
00E0
01E0
01C0
0000
0000
0000
F00F
781E
781E
3C3C
3C3C
1E78
1E78
0FF0
0FF0
07E0
07E0
03C0
03C0
03C0
03C0
03C0
03C0
03C0
03C0
ENDCHAR
STARTCHAR 00DE
ENCODING 222
SWIDTH 576 0
DWIDTH 16 0
BBX 14 19 2 0
BITMAP
E000
E000
E000
FFE0
FFF0
FFF8
E0F8
E03C
E03C
E03C
E03C
E078
E0F8
FFF0
FFE0
FF80
E000
E000
E000
ENDCHAR
STARTCHAR 00DF
ENCODING 223
SWIDTH 576 0
DWIDTH 16 0
BBX 13 20 2 0
BITMAP
1F80
7FE0
7FF0
F8F0
F078
E078
E078
E0F0
E7F0
E7C0
E7E0
E0F0
E078
E038
E038
E078
E0F8
E7F0
E7F0
E7C0
ENDCHAR
STARTCHAR 00E0
ENCODING 224
SWIDTH 612 0
DWIDTH 17 0
BBX 14 22 1 0
BITMAP
1E00
1E00
0F00
0700
0780
0000
0000
1F3C
3FBC
7FFC
7C7C
F83C
F03C
F03C
F03C
F03C
F03C
F83C
787C
7FFC
3FFC
1FBC
ENDCHAR
STARTCHAR 00E1
ENCODING 225
SWIDTH 612 0
DWIDTH 17 0
BBX 14 22 1 0
BITMAP
00F0
00F0
01E0
01C0
03C0
0000
0000
1F3C
3FBC
7FFC
7C7C
F83C
F03C
F03C
F03C
F03C
F03C
F83C
787C
7FFC
3FFC
1FBC
ENDCHAR
STARTCHAR 00E2
ENCODING 226
SWIDTH 612 0
DWIDTH 17 0
BBX 14 21 1 0
BITMAP
0380
07C0
0FE0
1EF0
3C78
0000
1F3C
3FBC
7FFC
7C7C
F83C
F03C
F03C
F03C
F03C
F03C
F83C
787C
7FFC
3FFC
1FBC
ENDCHAR
STARTCHAR 00E3
ENCODING 227
SWIDTH 612 0
DWIDTH 17 0
BBX 14 21 1 0
BITMAP
0630
0FF0
1FF0
18E0
0000
0000
1F3C
3FBC
7FFC
7C7C
F83C
F03C
F03C
F03C
F03C
F03C
F83C
787C
7FFC
3FFC
1FBC
ENDCHAR
STARTCHAR 00E4
ENCODING 228
SWIDTH 612 0
DWIDTH 17 0
BBX 14 21 1 0
BITMAP
3C78
3C78
3C78
1830
0000
0000
1F3C
3FBC
7FFC
7C7C
F83C
F03C
F03C
F03C
F03C
F03C
F83C
787C
7FFC
3FFC
1FBC
ENDCHAR
STARTCHAR 00E5
ENCODING 229
SWIDTH 612 0
DWIDTH 17 0
BBX 14 22 1 0
BITMAP
0380
06C0
0440
06C0
0380
0000
0000
1F3C
3FBC
7FFC
7C7C
F83C
F03C
F03C
F03C
F03C
F03C
F83C
787C
7FFC
3FFC
1FBC
ENDCHAR
STARTCHAR 00E6
ENCODING 230
SWIDTH 900 0
DWIDTH 25 0
BBX 23 15 1 0
BITMAP
0F83E0
3FEFF8
7FFFFC
787E3C
707C1E
00781E
03FFFE
3FFFFE
7FFFFE
F07800
F07C1E
F07C3E
7FFFFC
7FCFF8
3F87F0
ENDCHAR
STARTCHAR 00E7
ENCODING 231
SWIDTH 540 0
DWIDTH 15 0
BBX 14 22 1 -7
BITMAP
0FC0
1FF0
3FF8
7C78
783C
F03C
F000
F000
F000
F03C
783C
7878
3FF8
3FF0
0FE0
0300
03C0
03E0
0060
0060
03C0
0380
ENDCHAR
STARTCHAR 00E8
ENCODING 232
SWIDTH 576 0
DWIDTH 16 0
BBX 14 22 1 0
BITMAP
3C00
1E00
0E00
0F00
0700
0000
0000
0FC0
1FF0
3FF8
7878
7038
F03C
FFFC
FFFC
FFFC
F000
703C
7878
3FF8
3FF0
0FC0
ENDCHAR
STARTCHAR 00E9
ENCODING 233
SWIDTH 576 0
DWIDTH 16 0
BBX 14 22 1 0
BITMAP
00F0
00E0
01E0
01C0
0380
0000
0000
0FC0
1FF0
3FF8
7878
7038
F03C
FFFC
FFFC
FFFC
F000
703C
7878
3FF8
3FF0
0FC0
ENDCHAR
STARTCHAR 00EA
ENCODING 234
SWIDTH 576 0
DWIDTH 16 0
BBX 14 21 1 0
BITMAP
0780
07C0
0FE0
1CF0
3878
0000
0FC0
1FF0
3FF8
7878
7038
F03C
FFFC
FFFC
FFFC
F000
703C
7878
3FF8
3FF0
0FC0
ENDCHAR
STARTCHAR 00EB
ENCODING 235
SWIDTH 576 0
DWIDTH 16 0
BBX 14 21 1 0
BITMAP
3C78
3C78
3C78
1830
0000
0000
0FC0
1FF0
3FF8
7878
7038
F03C
FFFC
FFFC
FFFC
F000
703C
7878
3FF8
3FF0
0FC0
ENDCHAR
STARTCHAR 00EC
ENCODING 236
SWIDTH 252 0
DWIDTH 7 0
BBX 7 22 -1 0
BITMAP
F0
78
38
3C
1C
00
00
1E
1E
1E
1E
1E
1E
1E
1E
1E
1E
1E
1E
1E
1E
1E
ENDCHAR
STARTCHAR 00ED
ENCODING 237
SWIDTH 252 0
DWIDTH 7 0
BBX 7 22 2 0
BITMAP
1E
3C
38
78
70
00
00
F0
F0
F0
F0
F0
F0
F0
F0
F0
F0
F0
F0
F0
F0
F0
ENDCHAR
STARTCHAR 00EE
ENCODING 238
SWIDTH 252 0
DWIDTH 7 0
BBX 10 21 -1 0
BITMAP
1E00
3F00
7F80
7380
E1C0
0000
1E00
1E00
1E00
1E00
1E00
1E00
1E00
1E00
1E00
1E00
1E00
1E00
1E00
1E00
1E00
ENDCHAR
STARTCHAR 00EF
ENCODING 239
SWIDTH 252 0
DWIDTH 7 0
BBX 12 21 -2 0
BITMAP
70E0
F8F0
78F0
7060
0000
0000
0F00
0F00
0F00
0F00
0F00
0F00
0F00
0F00
0F00
0F00
0F00
0F00
0F00
0F00
0F00
ENDCHAR
STARTCHAR 00F0
ENCODING 240
SWIDTH 576 0
DWIDTH 16 0
BBX 14 23 1 0
BITMAP
0C00
0F98
0FFC
03F0
03F8
03F8
027C
003C
1F3C
3FBC
7FFC
F8FC
F07C
F03C
F03C
F03C
F03C
F03C
F078
7878
7FF0
3FF0
1FC0
ENDCHAR
STARTCHAR 00F1
ENCODING 241
SWIDTH 576 0
DWIDTH 16 0
BBX 13 21 2 0
BITMAP
1C60
3FE0
3FC0
31C0
0000
0000
E3E0
EFF0
EFF0
F8F8
F078
F078
E078
E078
E078
E078
E078
E078
E078
E078
E078
ENDCHAR
STARTCHAR 00F2
ENCODING 242
SWIDTH 576 0
DWIDTH 16 0
BBX 14 22 1 0
BITMAP
3C00
1E00
0E00
0F00
0700
0000
0000
0FC0
1FF0
3FF8
7C78
783C
F03C
F03C
F03C
F03C
F03C
783C
7878
3FF8
3FF0
0FC0
ENDCHAR
STARTCHAR 00F3
ENCODING 243
SWIDTH 576 0
DWIDTH 16 0
BBX 14 22 1 0
BITMAP
00F0
00E0
01E0
01C0
0380
0000
0000
0FC0
1FF0
3FF8
7C78
783C
F03C
F03C
F03C
F03C
F03C
783C
7878
3FF8
3FF0
0FC0
ENDCHAR
STARTCHAR 00F4
ENCODING 244
SWIDTH 576 0
DWIDTH 16 0
BBX 14 21 1 0
BITMAP
0780
07C0
0FE0
1CF0
3878
0000
0FC0
1FF0
3FF8
7C78
783C
F03C
F03C
F03C
F03C
F03C
783C
7878
3FF8
3FF0
0FC0
ENDCHAR
STARTCHAR 00F5
ENCODING 245
SWIDTH 576 0
DWIDTH 16 0
BBX 14 21 1 0
BITMAP
0E30
1FE0
1FE0
19C0
0000
0000
0FC0
1FF0
3FF8
7C78
783C
F03C
F03C
F03C
F03C
F03C
783C
7878
3FF8
3FF0
0FC0
ENDCHAR
STARTCHAR 00F6
ENCODING 246
SWIDTH 576 0
DWIDTH 16 0
BBX 14 21 1 0
BITMAP
3C78
3C78
3C78
1830
0000
0000
0FC0
1FF0
3FF8
7C78
783C
F03C
F03C
F03C
F03C
F03C
783C
7878
3FF8
3FF0
0FC0
ENDCHAR
STARTCHAR 00F7
ENCODING 247
SWIDTH 576 0
DWIDTH 16 0
BBX 12 15 2 1
BITMAP
0F00
0F00
0F00
0600
0000
0000
FFF0
FFF0
FFF0
0000
0000
0F00
0F00
0F00
0600
ENDCHAR
STARTCHAR 00F8
ENCODING 248
SWIDTH 576 0
DWIDTH 16 0
BBX 14 17 1 -1
BITMAP
0038
0FF0
1FF0
3FF8
7CF8
79FC
F1FC
F3BC
F3BC
F73C
F63C
7E3C
7C78
3FF8
3FF0
3FC0
7000
ENDCHAR
STARTCHAR 00F9
ENCODING 249
SWIDTH 576 0
DWIDTH 16 0
BBX 13 22 2 0
BITMAP
7800
3C00
1C00
1E00
0E00
0000
0000
E078
E078
E078
E078
E078
E078
E078
E078
E078
E078
F078
F0F8
FFF8
7F78
3E78
ENDCHAR
STARTCHAR 00FA
ENCODING 250
SWIDTH 576 0
DWIDTH 16 0
BBX 13 22 2 0
BITMAP
01E0
03C0
0380
0780
0700
0000
0000
E078
E078
E078
E078
E078
E078
E078
E078
E078
E078
F078
F0F8
FFF8
7F78
3E78
ENDCHAR
STARTCHAR 00FB
ENCODING 251
SWIDTH 576 0
DWIDTH 16 0
BBX 13 21 2 0
BITMAP
0F00
1F80
3FC0
39E0
70E0
0000
E078
E078
E078
E078
E078
E078
E078
E078
E078
E078
F078
F0F8
FFF8
7F78
3E78
ENDCHAR
STARTCHAR 00FC
ENCODING 252
SWIDTH 576 0
DWIDTH 16 0
BBX 13 21 2 0
BITMAP
70F0
78F0
78F0
3060
0000
0000
E078
E078
E078
E078
E078
E078
E078
E078
E078
E078
F078
F0F8
FFF8
7F78
3E78
ENDCHAR
STARTCHAR 00FD
ENCODING 253
SWIDTH 540 0
DWIDTH 15 0
BBX 14 28 1 -6
BITMAP
00E0
01E0
01C0
0380
0380
0000
0000
F03C
F03C
F078
7078
7870
78F0
38F0
3CE0
1DE0
1DE0
1FC0
0FC0
0F80
0F80
0780
0700
0F00
1E00
FE00
FC00
F800
ENDCHAR
STARTCHAR 00FE
ENCODING 254
SWIDTH 612 0
DWIDTH 17 0
BBX 14 28 2 -7
BITMAP
E000
E000
E000
E000
E000
E000
E3E0
EFF0
EFF8
F8F8
F07C
F03C
F03C
E03C
E03C
F03C
F07C
F878
FFF8
EFF0
E7E0
E000
E000
E000
E000
E000
E000
E000
ENDCHAR
STARTCHAR 00FF
ENCODING 255
SWIDTH 540 0
DWIDTH 15 0
BBX 14 27 1 -6
BITMAP
3870
7CF8
78F0
3870
0000
0000
F03C
F03C
F078
7078
7870
78F0
38F0
3CE0
1DE0
1DE0
1FC0
0FC0
0F80
0F80
0780
0700
0F00
1E00
FE00
FC00
F800
ENDCHAR
STARTCHAR 0100
ENCODING 256
SWIDTH 648 0
DWIDTH 18 0
BBX 17 24 1 0
BITMAP
0FF800
0FF800
000000
000000
000000
03E000
03E000
03E000
07F000
077000
0F7000
0F7800
0E3800
1E3800
1E3C00
1C1C00
3FFE00
3FFE00
3FFE00
780F00
780F00
700F00
F00780
F00780
ENDCHAR
STARTCHAR 0101
ENCODING 257
SWIDTH 612 0
DWIDTH 17 0
BBX 14 19 1 0
BITMAP
1FF0
1FF0
0000
0000
1F3C
3FBC
7FFC
7C7C
F83C
F03C
F03C
F03C
F03C
F03C
F83C
787C
7FFC
3FFC
1FBC
ENDCHAR
STARTCHAR 0102
ENCODING 258
SWIDTH 648 0
DWIDTH 18 0
BBX 17 25 1 0
BITMAP
1E3800
0FF800
07F000
008000
000000
000000
03E000
03E000
03E000
07F000
077000
0F7000
0F7800
0E3800
1E3800
1E3C00
1C1C00
3FFE00
3FFE00
3FFE00
780F00
780F00
700F00
F00780
F00780
ENDCHAR
STARTCHAR 0103
ENCODING 259
SWIDTH 612 0
DWIDTH 17 0
BBX 14 20 1 0
BITMAP
1C70
1FF0
07C0
0000
0000
1F3C
3FBC
7FFC
7C7C
F83C
F03C
F03C
F03C
F03C
F03C
F83C
787C
7FFC
3FFC
1FBC
ENDCHAR
STARTCHAR 0104
ENCODING 260
SWIDTH 648 0
DWIDTH 18 0
BBX 17 24 1 -5
BITMAP
03E000
03E000
03E000
07F000
077000
0F7000
0F7800
0E3800
1E3800
1E3C00
1C1C00
3FFE00
3FFE00
3FFE00
780F00
780F00
700700
F00780
F00780
000700
000E00
000E00
000780
000380
ENDCHAR
STARTCHAR 0105
ENCODING 261
SWIDTH 612 0
DWIDTH 17 0
BBX 15 20 1 -5
BITMAP
1F3C
3FBC
7FFC
7C7C
F83C
F03C
F03C
F03C
F03C
F03C
F83C
787C
7FFC
3FFC
1FBC
001C
0038
0038
001E
000E
ENDCHAR
STARTCHAR 0106
ENCODING 262
SWIDTH 684 0
DWIDTH 19 0
BBX 17 27 1 0
BITMAP
003C00
007800
007000
00F000
00E000
000000
000000
01E000
0FFC00
1FFE00
3FFF00
3C0F00
780780
780780
F00000
F00000
F00000
F00000
F00000
F00000
780380
780780
7C0F80
3E1F00
1FFE00
0FFC00
07F800
ENDCHAR
STARTCHAR 0107
ENCODING 263
SWIDTH 540 0
DWIDTH 15 0
BBX 14 22 1 0
BITMAP
00F0
00E0
01E0
01C0
0380
0000
0000
0FC0
1FF0
3FF8
7C78
783C
F03C
F000
F000
F000
F03C
783C
7878
3FF8
3FF0
0FE0
ENDCHAR
STARTCHAR 010A
ENCODING 266
SWIDTH 684 0
DWIDTH 19 0
BBX 17 26 1 0
BITMAP
01C000
01E000
01E000
01C000
000000
000000
01E000
0FFC00
1FFE00
3FFF00
3C0F00
780780
780780
F00000
F00000
F00000
F00000
F00000
F00000
780380
780780
7C0F80
3E1F00
1FFE00
0FFC00
07F800
ENDCHAR
STARTCHAR 010B
ENCODING 267
SWIDTH 540 0
DWIDTH 15 0
BBX 14 21 1 0
BITMAP
0780
0780
0780
0300
0000
0000
0FC0
1FF0
3FF8
7C78
783C
F03C
F000
F000
F000
F03C
783C
7878
3FF8
3FF0
0FE0
ENDCHAR
STARTCHAR 010C
ENCODING 268
SWIDTH 684 0
DWIDTH 19 0
BBX 17 26 1 0
BITMAP
0E1C00
0F3800
07F000
03E000
01E000
000000
01E000
0FFC00
1FFE00
3FFF00
3C0F00
780780
780780
F00000
F00000
F00000
F00000
F00000
F00000
780380
780780
7C0F80
3E1F00
1FFE00
0FFC00
07F800
ENDCHAR
STARTCHAR 010D
ENCODING 269
SWIDTH 540 0
DWIDTH 15 0
BBX 14 21 1 0
BITMAP
3C70
1CE0
0FC0
07C0
0380
0000
0FC0
1FF0
3FF8
7C78
783C
F03C
F000
F000
F000
F03C
783C
7878
3FF8
3FF0
0FE0
ENDCHAR
STARTCHAR 010E
ENCODING 270
SWIDTH 648 0
DWIDTH 18 0
BBX 16 26 2 0
BITMAP
3870
1CF0
0FE0
07C0
0780
0000
0000
FFE0
FFF8
FFFC
E07C
E03E
E01E
E01F
E00F
E00F
E00F
E00F
E00F
E01E
E01E
E03E
E1FC
FFF8
FFF0
FFC0
ENDCHAR
STARTCHAR 010F
ENCODING 271
SWIDTH 756 0
DWIDTH 21 0
BBX 20 23 1 0
BITMAP
000040
0000F0
001CF0
001CF0
001C30
001C10
001C30
001C60
1F1C40
3FDC00
7FDC00
7C7C00
F83C00
F03C00
F01C00
F01C00
F01C00
F03C00
F83C00
787C00
7FDC00
3FDC00
1F9C00
ENDCHAR
STARTCHAR 0110
ENCODING 272
SWIDTH 684 0
DWIDTH 19 0
BBX 18 19 1 0
BITMAP
7FF800
7FFE00
7FFF00
781F00
780F80
780780
780780
7807C0
FF03C0
FF03C0
7807C0
7807C0
780780
780F80
780F80
78FF00
7FFE00
7FFC00
7FF000
ENDCHAR
STARTCHAR 0111
ENCODING 273
SWIDTH 612 0
DWIDTH 17 0
BBX 16 21 1 0
BITMAP
001C
001C
01FF
01FF
01FF
001C
1F1C
3FDC
7FDC
7C7C
F83C
F03C
F01C
F01C
F01C
F03C
F83C
787C
7FDC
3FDC
1F9C
ENDCHAR
STARTCHAR 0112
ENCODING 274
SWIDTH 540 0
DWIDTH 15 0
BBX 12 24 2 0
BITMAP
3FC0
3FC0
0000
0000
0000
FFF0
FFF0
FFF0
E000
E000
E000
E000
E000
FFE0
FFE0
FFE0
E000
E000
E000
E000
E000
FFF0
FFF0
FFF0
ENDCHAR
STARTCHAR 0113
ENCODING 275
SWIDTH 576 0
DWIDTH 16 0
BBX 14 19 1 0
BITMAP
1FF0
1FF0
0000
0000
0FC0
1FF0
3FF8
7878
7038
F03C
FFFC
FFFC
FFFC
F000
703C
7878
3FF8
3FF0
0FC0
ENDCHAR
STARTCHAR 0116
ENCODING 278
SWIDTH 540 0
DWIDTH 15 0
BBX 12 26 2 0
BITMAP
0F00
0F00
0F00
0600
0000
0000
0000
FFF0
FFF0
FFF0
E000
E000
E000
E000
E000
FFE0
FFE0
FFE0
E000
E000
E000
E000
E000
FFF0
FFF0
FFF0
ENDCHAR
STARTCHAR 0117
ENCODING 279
SWIDTH 576 0
DWIDTH 16 0
BBX 14 21 1 0
BITMAP
0780
0780
0780
0300
0000
0000
0FC0
1FF0
3FF8
7878
7038
F03C
FFFC
FFFC
FFFC
F000
703C
7878
3FF8
3FF0
0FC0
ENDCHAR
STARTCHAR 0118
ENCODING 280
SWIDTH 540 0
DWIDTH 15 0
BBX 13 24 2 -5
BITMAP
FFF0
FFF0
FFF0
E000
E000
E000
E000
E000
FFE0
FFE0
FFE0
E000
E000
E000
E000
E000
FFF0
FFF0
FFF0
0070
0060
0060
0078
0038
ENDCHAR
STARTCHAR 0119
ENCODING 281
SWIDTH 576 0
DWIDTH 16 0
BBX 14 20 1 -5
BITMAP
0FC0
1FF0
3FF8
7878
7038
F03C
FFFC
FFFC
FFFC
F000
703C
7878
3FF8
3FF0
0FC0
0700
0E00
0E00
0780
0380
ENDCHAR
STARTCHAR 011A
ENCODING 282
SWIDTH 540 0
DWIDTH 15 0
BBX 12 26 2 0
BITMAP
70E0
39C0
3F80
1F80
0F00
0000
0000
FFF0
FFF0
FFF0
E000
E000
E000
E000
E000
FFE0
FFE0
FFE0
E000
E000
E000
E000
E000
FFF0
FFF0
FFF0
ENDCHAR
STARTCHAR 011B
ENCODING 283
SWIDTH 576 0
DWIDTH 16 0
BBX 14 21 1 0
BITMAP
3C70
1CE0
0FC0
07C0
0380
0000
0FC0
1FF0
3FF8
7878
7038
F03C
FFFC
FFFC
FFFC
F000
703C
7878
3FF8
3FF0
0FC0
ENDCHAR
STARTCHAR 011E
ENCODING 286
SWIDTH 684 0
DWIDTH 19 0
BBX 17 25 1 0
BITMAP
0E1C00
07F800
03F000
008000
000000
01E000
0FFC00
1FFE00
3FFF00
3C0F00
780780
780780
F00000
F00000
F03F80
F03F80
F03F80
F00380
780380
780780
7C0780
3E0F80
1FFD80
0FF980
07F180
ENDCHAR
STARTCHAR 011F
ENCODING 287
SWIDTH 612 0
DWIDTH 17 0
BBX 15 26 1 -6
BITMAP
1C70
1FF0
07C0
0000
0000
0F1E
3FDE
7FDE
7C7E
F83E
F03E
F01E
F01E
F01E
F03E
783E
7CFE
7FDE
3F9E
0F1C
003C
003C
007C
07F8
07F0
07E0
ENDCHAR
STARTCHAR 0120
ENCODING 288
SWIDTH 684 0
DWIDTH 19 0
BBX 17 26 1 0
BITMAP
01E000
01E000
01E000
00C000
000000
000000
01E000
0FFC00
1FFE00
3FFF00
3C0F00
780780
780780
F00000
F00000
F03F80
F03F80
F03F80
F00380
780380
780780
7C0780
3E0F80
1FFD80
0FF980
07F180
ENDCHAR
STARTCHAR 0121
ENCODING 289
SWIDTH 612 0
DWIDTH 17 0
BBX 15 27 1 -6
BITMAP
0380
07C0
0780
0380
0000
0000
0F1E
3FDE
7FDE
7C7E
F83E
F03E
F01E
F01E
F01E
F03E
783E
7CFE
7FDE
3F9E
0F1C
003C
003C
007C
07F8
07F0
07E0
ENDCHAR
STARTCHAR 0126
ENCODING 294
SWIDTH 684 0
DWIDTH 19 0
BBX 19 19 0 0
BITMAP
3C03C0
3C03C0
FFFFE0
FFFFE0
FFFFE0
3C03C0
3C03C0
3C03C0
3FFFC0
3FFFC0
3FFFC0
3C03C0
3C03C0
3C03C0
3C03C0
3C03C0
3C03C0
3C03C0
3C03C0
ENDCHAR
STARTCHAR 0127
ENCODING 295
SWIDTH 576 0
DWIDTH 16 0
BBX 16 21 0 0
BITMAP
3C00
3C00
FF80
FF80
FF80
3C00
3CF8
3DFE
3FFE
3F1E
3E1F
3C0F
3C0F
3C0F
3C0F
3C0F
3C0F
3C0F
3C0F
3C0F
3C0F
ENDCHAR
STARTCHAR 0128
ENCODING 296
SWIDTH 252 0
DWIDTH 7 0
BBX 9 26 -1 0
BITMAP
0180
7D80
FF80
CF00
0000
0000
0000
1E00
1E00
1E00
1E00
1E00
1E00
1E00
1E00
1E00
1E00
1E00
1E00
1E00
1E00
1E00
1E00
1E00
1E00
1E00
ENDCHAR
STARTCHAR 0129
ENCODING 297
SWIDTH 252 0
DWIDTH 7 0
BBX 9 21 -1 0
BITMAP
3180
7F80
7F80
C700
0000
0000
1E00
1E00
1E00
1E00
1E00
1E00
1E00
1E00
1E00
1E00
1E00
1E00
1E00
1E00
1E00
ENDCHAR
STARTCHAR 012A
ENCODING 298
SWIDTH 252 0
DWIDTH 7 0
BBX 9 24 -1 0
BITMAP
FF80
FF80
0000
0000
0000
1E00
1E00
1E00
1E00
1E00
1E00
1E00
1E00
1E00
1E00
1E00
1E00
1E00
1E00
1E00
1E00
1E00
1E00
1E00
ENDCHAR
STARTCHAR 012B
ENCODING 299
SWIDTH 252 0
DWIDTH 7 0
BBX 9 19 -1 0
BITMAP
FF80
FF80
0000
0000
1E00
1E00
1E00
1E00
1E00
1E00
1E00
1E00
1E00
1E00
1E00
1E00
1E00
1E00
1E00
ENDCHAR
STARTCHAR 012E
ENCODING 302
SWIDTH 252 0
DWIDTH 7 0
BBX 5 24 2 -5
BITMAP
F0
F0
F0
F0
F0
F0
F0
F0
F0
F0
F0
F0
F0
F0
F0
F0
F0
F0
F0
E0
C0
E0
F8
78
ENDCHAR
STARTCHAR 012F
ENCODING 303
SWIDTH 252 0
DWIDTH 7 0
BBX 5 26 2 -5
BITMAP
F0
F0
F0
60
00
00
F0
F0
F0
F0
F0
F0
F0
F0
F0
F0
F0
F0
F0
F0
F0
E0
C0
E0
F8
38
ENDCHAR
STARTCHAR 0130
ENCODING 304
SWIDTH 252 0
DWIDTH 7 0
BBX 4 26 2 0
BITMAP
E0
F0
F0
E0
00
00
00
F0
F0
F0
F0
F0
F0
F0
F0
F0
F0
F0
F0
F0
F0
F0
F0
F0
F0
F0
ENDCHAR
STARTCHAR 0131
ENCODING 305
SWIDTH 252 0
DWIDTH 7 0
BBX 4 15 2 0
BITMAP
F0
F0
F0
F0
F0
F0
F0
F0
F0
F0
F0
F0
F0
F0
F0
ENDCHAR
STARTCHAR 0139
ENCODING 313
SWIDTH 504 0
DWIDTH 14 0
BBX 12 27 2 0
BITMAP
1C00
3C00
3800
7000
7000
0000
0000
0000
E000
E000
E000
E000
E000
E000
E000
E000
E000
E000
E000
E000
E000
E000
E000
E000
FFF0
FFF0
FFF0
ENDCHAR
STARTCHAR 013A
ENCODING 314
SWIDTH 324 0
DWIDTH 9 0
BBX 7 28 2 0
BITMAP
1C
3C
38
70
70
00
00
F0
F0
F0
F0
F0
F0
F0
F0
F0
F0
F0
F0
F0
F0
F0
F0
F0
F0
FE
FE
7E
ENDCHAR
STARTCHAR 013D
ENCODING 317
SWIDTH 504 0
DWIDTH 14 0
BBX 16 26 -2 0
BITMAP
F1E0
7BC0
3F80
1F00
0E00
0000
0000
0E00
0E00
0E00
0E00
0E00
0E00
0E00
0E00
0E00
0E00
0E00
0E00
0E00
0E00
0E00
0E00
0FFF
0FFF
0FFF
ENDCHAR
STARTCHAR 013E
ENCODING 318
SWIDTH 396 0
DWIDTH 11 0
BBX 10 23 2 0
BITMAP
0300
0780
F780
F7C0
F1C0
F080
F180
F180
F200
F000
F000
F000
F000
F000
F000
F000
F000
F000
F000
F000
FE00
FE00
7E00
ENDCHAR
STARTCHAR 0143
ENCODING 323
SWIDTH 684 0
DWIDTH 19 0
BBX 16 27 2 0
BITMAP
0078
00F0
00E0
01E0
01C0
0000
0000
0000
F80F
F80F
FC0F
FC0F
FE0F
FF0F
EF0F
EF8F
E78F
E3CF
E3EF
E1EF
E1FF
E0FF
E07F
E07F
E03F
E03F
E01F
ENDCHAR
STARTCHAR 0144
ENCODING 324
SWIDTH 576 0
DWIDTH 16 0
BBX 13 22 2 0
BITMAP
01E0
01C0
03C0
0380
0700
0000
0000
E3E0
EFF0
EFF0
F8F8
F078
F078
E078
E078
E078
E078
E078
E078
E078
E078
E078
ENDCHAR
STARTCHAR 0147
ENCODING 327
SWIDTH 684 0
DWIDTH 19 0
BBX 16 26 2 0
BITMAP
3C78
1E70
0FE0
07C0
0380
0000
0000
F80F
F80F
FC0F
FC0F
FE0F
FF0F
EF0F
EF8F
E78F
E3CF
E3EF
E1EF
E1FF
E0FF
E07F
E07F
E03F
E03F
E01F
ENDCHAR
STARTCHAR 0148
ENCODING 328
SWIDTH 576 0
DWIDTH 16 0
BBX 13 21 2 0
BITMAP
78E0
3DE0
1FC0
0F80
0700
0000
E3E0
EFF0
EFF0
F8F8
F078
F078
E078
E078
E078
E078
E078
E078
E078
E078
E078
ENDCHAR
STARTCHAR 014C
ENCODING 332
SWIDTH 720 0
DWIDTH 20 0
BBX 18 24 1 0
BITMAP
07FC00
07FC00
000000
000000
03F000
0FFC00
1FFE00
3FFF00
7C0F80
7C0780
780780
F807C0
F003C0
F003C0
F003C0
F003C0
F003C0
7807C0
780780
7C0F80
3F3F00
1FFF00
0FFC00
07F800
ENDCHAR
STARTCHAR 014D
ENCODING 333
SWIDTH 576 0
DWIDTH 16 0
BBX 14 19 1 0
BITMAP
1FF0
1FF0
0000
0000
0FC0
1FF0
3FF8
7C78
783C
F03C
F03C
F03C
F03C
F03C
783C
7878
3FF8
3FF0
0FC0
ENDCHAR
STARTCHAR 0152
ENCODING 338
SWIDTH 936 0
DWIDTH 26 0
BBX 25 19 1 0
BITMAP
07FFFF80
1FFFFF80
3FFFFF80
7E0F0000
7C0F0000
780F0000
F80F0000
F00F0000
F00FFE00
F00FFE00
F00FFE00
F00F0000
F80F0000
780F0000
7C0F0000
3F8F0000
1FFFFF80
0FFFFF80
03FFFF80
ENDCHAR
STARTCHAR 0153
ENCODING 339
SWIDTH 936 0
DWIDTH 26 0
BBX 24 15 1 0
BITMAP
0FC1F0
1FE7FC
3FFFFE
7CFE1E
787E0F
F03C0F
F03FFF
F03FFF
F03FFF
F03C00
703E0F
787F1F
7FFFFE
3FF7FC
0FC3F8
ENDCHAR
STARTCHAR 0154
ENCODING 340
SWIDTH 576 0
DWIDTH 16 0
BBX 14 27 2 0
BITMAP
01E0
01C0
03C0
0380
0700
0000
0000
0000
FFE0
FFF0
FFF8
E078
E03C
E03C
E03C
E03C
E0F8
FFF8
FFF0
FFC0
E3C0
E1E0
E1F0
E0F0
E078
E078
E03C
ENDCHAR
STARTCHAR 0155
ENCODING 341
SWIDTH 360 0
DWIDTH 10 0
BBX 9 22 2 0
BITMAP
0780
0F00
0E00
1E00
1C00
0000
0000
F380
FF00
FF00
FF00
F800
F000
F000
F000
F000
F000
F000
F000
F000
F000
F000
ENDCHAR
STARTCHAR 0158
ENCODING 344
SWIDTH 576 0
DWIDTH 16 0
BBX 14 26 2 0
BITMAP
70E0
39E0
1FC0
0F80
0F00
0000
0000
FFE0
FFF0
FFF8
E078
E03C
E03C
E03C
E03C
E0F8
FFF8
FFF0
FFC0
E3C0
E1E0
E1F0
E0F0
E078
E078
E03C
ENDCHAR
STARTCHAR 0159
ENCODING 345
SWIDTH 360 0
DWIDTH 10 0
BBX 10 21 1 0
BITMAP
E3C0
7780
3F00
3E00
1C00
0000
79C0
7F80
7F80
7F80
7C00
7800
7800
7800
7800
7800
7800
7800
7800
7800
7800
ENDCHAR
STARTCHAR 015A
ENCODING 346
SWIDTH 576 0
DWIDTH 16 0
BBX 15 27 1 0
BITMAP
0078
0078
00F0
00E0
01E0
00C0
0000
07C0
1FF0
3FF8
7EFC
783C
783C
7800
7800
7F80
3FF0
1FF8
03FC
003E
001E
F81E
F83E
7C7C
7FFC
3FF8
0FE0
ENDCHAR
STARTCHAR 015B
ENCODING 347
SWIDTH 468 0
DWIDTH 13 0
BBX 12 23 1 0
BITMAP
01E0
01C0
03C0
0380
0780
0700
0000
0000
1F80
3FC0
7FE0
71E0
F0F0
7800
7F00
3FC0
0FE0
00F0
F0F0
F0F0
7FE0
7FE0
1F80
ENDCHAR
STARTCHAR 015E
ENCODING 350
SWIDTH 576 0
DWIDTH 16 0
BBX 15 27 1 -7
BITMAP
07C0
1FF0
3FF8
7EFC
783C
783C
7800
7800
7F80
3FF0
1FF8
03FC
003E
001E
F81E
F83E
7C7C
7FFC
3FF8
0FE0
0300
03C0
03E0
0060
0060
03E0
03C0
ENDCHAR
STARTCHAR 015F
ENCODING 351
SWIDTH 468 0
DWIDTH 13 0
BBX 12 22 1 -7
BITMAP
1F80
3FC0
7FE0
71E0
F0F0
7800
7F00
3FC0
0FE0
00F0
F0F0
F0F0
7FE0
7FE0
1F80
0600
0780
07C0
00C0
00C0
07C0
0780
ENDCHAR
STARTCHAR 0160
ENCODING 352
SWIDTH 576 0
DWIDTH 16 0
BBX 15 26 1 0
BITMAP
1C3C
0E78
07F0
03E0
01C0
0000
07C0
1FF0
3FF8
7EFC
783C
783C
7800
7800
7F80
3FF0
1FF8
03FC
003E
001E
F81E
F83E
7C7C
7FFC
3FF8
0FE0
ENDCHAR
STARTCHAR 0161
ENCODING 353
SWIDTH 468 0
DWIDTH 13 0
BBX 12 21 1 0
BITMAP
79E0
3FC0
1F80
0F00
0000
0000
1F80
3FC0
7FE0
71E0
F0F0
7800
7F00
3FC0
0FE0
00F0
F0F0
F0F0
7FE0
7FE0
1F80
ENDCHAR
STARTCHAR 0162
ENCODING 354
SWIDTH 576 0
DWIDTH 16 0
BBX 14 26 1 -7
BITMAP
FFFC
FFFC
FFFC
0780
0780
0780
0780
0780
0780
0780
0780
0780
0780
0780
0780
0780
0780
0780
0780
0300
0780
07C0
0060
00E0
07C0
0780
ENDCHAR
STARTCHAR 0163
ENCODING 355
SWIDTH 396 0
DWIDTH 11 0
BBX 10 26 1 -7
BITMAP
3C00
3C00
3C00
3C00
FF80
FF80
FF80
3C00
3C00
3C00
3C00
3C00
3C00
3C00
3C00
3C00
3F80
1F80
0F80
0600
0F00
0F80
00C0
0180
0F80
0F00
ENDCHAR
STARTCHAR 0164
ENCODING 356
SWIDTH 576 0
DWIDTH 16 0
BBX 14 26 1 0
BITMAP
3878
1CF0
0FE0
07C0
0380
0000
0000
FFFC
FFFC
FFFC
0780
0780
0780
0780
0780
0780
0780
0780
0780
0780
0780
0780
0780
0780
0780
0780
ENDCHAR
STARTCHAR 0165
ENCODING 357
SWIDTH 540 0
DWIDTH 15 0
BBX 14 23 1 0
BITMAP
0010
003C
007C
007C
3C1C
3C0C
3C0C
3C18
FFB0
FF80
FF80
3C00
3C00
3C00
3C00
3C00
3C00
3C00
3C00
3C00
3F80
1F80
0F80
ENDCHAR
STARTCHAR 0166
ENCODING 358
SWIDTH 576 0
DWIDTH 16 0
BBX 14 19 1 0
BITMAP
FFFC
FFFC
FFFC
0780
0780
0780
0780
0780
7FF8
7FF8
0780
0780
0780
0780
0780
0780
0780
0780
0780
ENDCHAR
STARTCHAR 0167
ENCODING 359
SWIDTH 396 0
DWIDTH 11 0
BBX 9 19 1 0
BITMAP
3C00
3C00
3C00
3C00
FF80
FF80
FF80
3C00
3C00
3C00
FF80
FF80
3C00
3C00
3C00
3C00
3F80
1F80
0F80
ENDCHAR
STARTCHAR 0168
ENCODING 360
SWIDTH 684 0
DWIDTH 19 0
BBX 15 26 2 0
BITMAP
0030
0FB0
1FF0
19E0
0000
0000
0000
E00E
E00E
E00E
E00E
E00E
E00E
E00E
E00E
E00E
E00E
E00E
E00E
F01E
F01E
F83E
7EFC
7FFC
3FF8
0FE0
ENDCHAR
STARTCHAR 0169
ENCODING 361
SWIDTH 576 0
DWIDTH 16 0
BBX 13 21 2 0
BITMAP
18C0
3FC0
3FC0
3380
0000
0000
E078
E078
E078
E078
E078
E078
E078
E078
E078
E078
F078
F0F8
FFF8
7F78
3E78
ENDCHAR
STARTCHAR 016A
ENCODING 362
SWIDTH 684 0
DWIDTH 19 0
BBX 15 24 2 0
BITMAP
1FF0
1FF0
0000
0000
0000
E00E
E00E
E00E
E00E
E00E
E00E
E00E
E00E
E00E
E00E
E00E
E00E
F01E
F01E
F83E
7EFC
7FFC
3FF8
0FE0
ENDCHAR
STARTCHAR 016B
ENCODING 363
SWIDTH 576 0
DWIDTH 16 0
BBX 13 19 2 0
BITMAP
3FC0
3FC0
0000
0000
E078
E078
E078
E078
E078
E078
E078
E078
E078
E078
F078
F0F8
FFF8
7F78
3E78
ENDCHAR
STARTCHAR 016E
ENCODING 366
SWIDTH 684 0
DWIDTH 19 0
BBX 15 27 2 0
BITMAP
0380
07C0
0440
06C0
07C0
0100
0000
0000
E00E
E00E
E00E
E00E
E00E
E00E
E00E
E00E
E00E
E00E
E00E
E00E
F01E
F01E
F83E
7EFC
7FFC
3FF8
0FE0
ENDCHAR
STARTCHAR 016F
ENCODING 367
SWIDTH 576 0
DWIDTH 16 0
BBX 13 22 2 0
BITMAP
0F00
1F80
1980
1980
0F00
0000
0000
E078
E078
E078
E078
E078
E078
E078
E078
E078
E078
F078
F0F8
FFF8
7F78
3E78
ENDCHAR
STARTCHAR 0172
ENCODING 370
SWIDTH 684 0
DWIDTH 19 0
BBX 15 24 2 -5
BITMAP
E00E
E00E
E00E
E00E
E00E
E00E
E00E
E00E
E00E
E00E
E00E
E00E
F01E
F01E
F83E
7EFC
7FFC
3FF8
0FE0
0380
0700
0700
03C0
01C0
ENDCHAR
STARTCHAR 0173
ENCODING 371
SWIDTH 576 0
DWIDTH 16 0
BBX 14 20 2 -5
BITMAP
E078
E078
E078
E078
E078
E078
E078
E078
E078
E078
F078
F0F8
FFF8
7F78
3E78
0070
0060
0070
007C
003C
ENDCHAR
STARTCHAR 0174
ENCODING 372
SWIDTH 972 0
DWIDTH 27 0
BBX 26 26 1 0
BITMAP
001C0000
003E0000
003F0000
00738000
00E3C000
00000000
00000000
E01E03C0
F01E03C0
F03E03C0
F03F0380
703F0780
787F0780
787F8780
78778700
38F38F00
38F3CF00
3CF3CF00
3DE3CE00
1DE1FE00
1DE1FE00
1FC1FE00
1FC0FC00
0FC0FC00
0F80FC00
0F807C00
ENDCHAR
STARTCHAR 0175
ENCODING 373
SWIDTH 792 0
DWIDTH 22 0
BBX 21 21 1 0
BITMAP
007000
00F800
01FC00
03DE00
078F00
000000
E07038
E0F078
F0F878
F0F878
70F870
71FC70
79DCF0
79DCE0
3BDCE0
3B9EE0
3F8FE0
3F8FC0
1F8FC0
1F07C0
1F07C0
ENDCHAR
STARTCHAR 0176
ENCODING 374
SWIDTH 612 0
DWIDTH 17 0
BBX 16 26 1 0
BITMAP
0380
03C0
07E0
0E70
1C38
0000
0000
F00F
781E
781E
3C3C
3C3C
1E78
1E78
0FF0
0FF0
07E0
07E0
03C0
03C0
03C0
03C0
03C0
03C0
03C0
03C0
ENDCHAR
STARTCHAR 0177
ENCODING 375
SWIDTH 540 0
DWIDTH 15 0
BBX 14 27 1 -6
BITMAP
0700
0F80
1FC0
3CE0
7870
0000
F03C
F03C
F078
7078
7870
78F0
38F0
3CE0
1DE0
1DE0
1FC0
0FC0
0F80
0F80
0780
0700
0F00
1E00
FE00
FC00
F800
ENDCHAR
STARTCHAR 0178
ENCODING 376
SWIDTH 612 0
DWIDTH 17 0
BBX 16 26 1 0
BITMAP
1C38
3E3C
1E3C
1C38
0000
0000
0000
F00F
781E
781E
3C3C
3C3C
1E78
1E78
0FF0
0FF0
07E0
07E0
03C0
03C0
03C0
03C0
03C0
03C0
03C0
03C0
ENDCHAR
STARTCHAR 0179
ENCODING 377
SWIDTH 612 0
DWIDTH 17 0
BBX 15 27 1 0
BITMAP
0070
00F0
00E0
01E0
01C0
0000
0000
0000
FFFE
FFFE
FFFE
003C
007C
00F8
01F0
01E0
03C0
07C0
0F80
1F00
1E00
3C00
7C00
FFFE
FFFE
FFFE
FFFE
ENDCHAR
STARTCHAR 017A
ENCODING 378
SWIDTH 468 0
DWIDTH 13 0
BBX 12 22 1 0
BITMAP
01E0
01C0
0380
0780
0700
0000
0000
7FF0
7FF0
7FF0
01E0
01E0
03C0
0780
0F00
1E00
3E00
3C00
7800
FFF0
FFF0
FFF0
ENDCHAR
STARTCHAR 017B
ENCODING 379
SWIDTH 612 0
DWIDTH 17 0
BBX 15 26 1 0
BITMAP
0380
03C0
03C0
0380
0000
0000
0000
FFFE
FFFE
FFFE
003C
007C
00F8
01F0
01E0
03C0
07C0
0F80
1F00
1E00
3C00
7C00
FFFE
FFFE
FFFE
FFFE
ENDCHAR
STARTCHAR 017C
ENCODING 380
SWIDTH 468 0
DWIDTH 13 0
BBX 12 21 1 0
BITMAP
0F00
0F00
0F00
0600
0000
0000
7FF0
7FF0
7FF0
01E0
01E0
03C0
0780
0F00
1E00
3E00
3C00
7800
FFF0
FFF0
FFF0
ENDCHAR
STARTCHAR 017D
ENCODING 381
SWIDTH 612 0
DWIDTH 17 0
BBX 15 26 1 0
BITMAP
3C78
1E70
0FE0
07C0
0380
0000
0000
FFFE
FFFE
FFFE
003C
007C
00F8
01F0
01E0
03C0
07C0
0F80
1F00
1E00
3C00
7C00
FFFE
FFFE
FFFE
FFFE
ENDCHAR
STARTCHAR 017E
ENCODING 382
SWIDTH 468 0
DWIDTH 13 0
BBX 12 21 1 0
BITMAP
70E0
39C0
1F80
0F00
0700
0000
7FF0
7FF0
7FF0
01E0
01E0
03C0
0780
0F00
1E00
3E00
3C00
7800
FFF0
FFF0
FFF0
ENDCHAR
STARTCHAR 01A0
ENCODING 416
SWIDTH 720 0
DWIDTH 20 0
BBX 18 22 1 0
BITMAP
000180
000180
03E780
0FFF00
1FFE00
3FFF00
7C0F80
7C0780
780780
F807C0
F003C0
F003C0
F003C0
F003C0
F003C0
7807C0
780780
7C0F80
3F3F00
1FFF00
0FFC00
07F800
ENDCHAR
STARTCHAR 01A1
ENCODING 417
SWIDTH 576 0
DWIDTH 16 0
BBX 15 18 1 0
BITMAP
000E
000E
000E
0FFC
1FFC
3FF8
7C78
783C
F03C
F03C
F03C
F03C
F03C
783C
7878
3FF8
3FF0
0FC0
ENDCHAR
STARTCHAR 01AF
ENCODING 431
SWIDTH 684 0
DWIDTH 19 0
BBX 19 22 2 0
BITMAP
0000E0
0000E0
0003C0
E00FC0
E00E00
E00E00
E00E00
E00E00
E00E00
E00E00
E00E00
E00E00
E00E00
E00E00
E00E00
F01E00
F01E00
F83E00
7EFC00
7FFC00
3FF800
0FE000
ENDCHAR
STARTCHAR 01B0
ENCODING 432
SWIDTH 576 0
DWIDTH 16 0
BBX 16 18 2 0
BITMAP
0007
0007
0007
E07F
E07E
E078
E078
E078
E078
E078
E078
E078
E078
F078
F0F8
FFF8
7F78
3E78
ENDCHAR
STARTCHAR 02C6
ENCODING 710
SWIDTH 432 0
DWIDTH 12 0
BBX 11 5 1 16
BITMAP
0E00
1F00
3F80
73C0
E1E0
ENDCHAR
STARTCHAR 02C7
ENCODING 711
SWIDTH 432 0
DWIDTH 12 0
BBX 10 5 1 16
BITMAP
F1C0
7B80
3F80
1F00
0E00
ENDCHAR
STARTCHAR 02D8
ENCODING 728
SWIDTH 396 0
DWIDTH 11 0
BBX 10 3 1 17
BITMAP
E1C0
7F80
3F00
ENDCHAR
STARTCHAR 02D9
ENCODING 729
SWIDTH 180 0
DWIDTH 5 0
BBX 4 4 1 17
BITMAP
F0
F0
F0
60
ENDCHAR
STARTCHAR 02DA
ENCODING 730
SWIDTH 252 0
DWIDTH 7 0
BBX 5 5 1 17
BITMAP
70
D8
88
D8
78
ENDCHAR
STARTCHAR 02DB
ENCODING 731
SWIDTH 216 0
DWIDTH 6 0
BBX 5 6 1 -6
BITMAP
60
E0
C0
E0
F8
38
ENDCHAR
STARTCHAR 02DC
ENCODING 732
SWIDTH 396 0
DWIDTH 11 0
BBX 9 4 1 17
BITMAP
3180
7F80
FF80
C700
ENDCHAR
STARTCHAR 0300
ENCODING 768
SWIDTH 0 0
DWIDTH 0 0
BBX 6 6 -7 17
BITMAP
F0
F0
78
38
3C
1C
ENDCHAR
STARTCHAR 0301
ENCODING 769
SWIDTH 0 0
DWIDTH 0 0
BBX 6 6 -6 17
BITMAP
3C
3C
78
70
F0
E0
ENDCHAR
STARTCHAR 0302
ENCODING 770
SWIDTH 0 0
DWIDTH 0 0
BBX 11 5 -11 16
BITMAP
0E00
1F00
3F80
79C0
F0E0
ENDCHAR
STARTCHAR 0303
ENCODING 771
SWIDTH 0 0
DWIDTH 0 0
BBX 9 4 -10 17
BITMAP
3180
7F80
FF80
C700
ENDCHAR
STARTCHAR 0304
ENCODING 772
SWIDTH 0 0
DWIDTH 0 0
BBX 9 2 -11 18
BITMAP
FF80
FF80
ENDCHAR
STARTCHAR 0306
ENCODING 774
SWIDTH 0 0
DWIDTH 0 0
BBX 9 3 -10 17
BITMAP
E380
FF80
3E00
ENDCHAR
STARTCHAR 0307
ENCODING 775
SWIDTH 0 0
DWIDTH 0 0
BBX 4 4 -6 17
BITMAP
F0
F0
F0
60
ENDCHAR
STARTCHAR 0308
ENCODING 776
SWIDTH 0 0
DWIDTH 0 0
BBX 11 4 -13 17
BITMAP
F1E0
F1E0
F1E0
60C0
ENDCHAR
STARTCHAR 0309
ENCODING 777
SWIDTH 0 0
DWIDTH 0 0
BBX 7 6 -8 17
BITMAP
38
7E
EE
0E
0E
38
ENDCHAR
STARTCHAR 030A
ENCODING 778
SWIDTH 0 0
DWIDTH 0 0
BBX 6 5 -7 17
BITMAP
78
F8
CC
D8
78
ENDCHAR
STARTCHAR 030C
ENCODING 780
SWIDTH 0 0
DWIDTH 0 0
BBX 10 5 -11 16
BITMAP
E3C0
F780
7F00
3E00
1C00
ENDCHAR
STARTCHAR 031B
ENCODING 795
SWIDTH 0 0
DWIDTH 0 0
BBX 5 4 -6 17
BITMAP
18
18
F8
F0
ENDCHAR
STARTCHAR 0323
ENCODING 803
SWIDTH 0 0
DWIDTH 0 0
BBX 4 4 -4 -7
BITMAP
E0
F0
F0
60
ENDCHAR
STARTCHAR 0327
ENCODING 807
SWIDTH 0 0
DWIDTH 0 0
BBX 5 7 -6 -7
BITMAP
C0
F0
F8
18
18
F8
F0
ENDCHAR
STARTCHAR 0328
ENCODING 808
SWIDTH 0 0
DWIDTH 0 0
BBX 5 6 -6 -6
BITMAP
60
E0
E0
E0
F8
38
ENDCHAR
STARTCHAR 1E80
ENCODING 7808
SWIDTH 972 0
DWIDTH 27 0
BBX 26 27 1 0
BITMAP
00F00000
00700000
00780000
00380000
001C0000
00000000
00000000
00000000
E01E03C0
F01E03C0
F03E03C0
F03F0380
703F0780
787F0780
787F8780
78778700
38F38F00
38F3CF00
3CF3CF00
3DE3CE00
1DE1FE00
1DE1FE00
1FC1FE00
1FC0FC00
0FC0FC00
0F80FC00
0F807C00
ENDCHAR
STARTCHAR 1E81
ENCODING 7809
SWIDTH 792 0
DWIDTH 22 0
BBX 21 22 1 0
BITMAP
03C000
03C000
01E000
00E000
00F000
000000
000000
E07038
E0F078
F0F878
F0F878
70F870
71FC70
79DCF0
79DCE0
3BDCE0
3B9EE0
3F8FE0
3F8FC0
1F8FC0
1F07C0
1F07C0
ENDCHAR
STARTCHAR 1E82
ENCODING 7810
SWIDTH 972 0
DWIDTH 27 0
BBX 26 27 1 0
BITMAP
0003C000
00078000
00070000
000F0000
000E0000
00000000
00000000
00000000
E01E03C0
F01E03C0
F03E03C0
F03F0380
703F0780
787F0780
787F8780
78778700
38F38F00
38F3CF00
3CF3CF00
3DE3CE00
1DE1FE00
1DE1FE00
1FC1FE00
1FC0FC00
0FC0FC00
0F80FC00
0F807C00
ENDCHAR
STARTCHAR 1E83
ENCODING 7811
SWIDTH 792 0
DWIDTH 22 0
BBX 21 22 1 0
BITMAP
001E00
001C00
003C00
003800
007800
000000
000000
E07038
E0F078
F0F878
F0F878
70F870
71FC70
79DCF0
79DCE0
3BDCE0
3B9EE0
3F8FE0
3F8FC0
1F8FC0
1F07C0
1F07C0
ENDCHAR
STARTCHAR 1E84
ENCODING 7812
SWIDTH 972 0
DWIDTH 27 0
BBX 26 26 1 0
BITMAP
00E1C000
01F3E000
01F3E000
00E1C000
00000000
00000000
00000000
E01E03C0
F01E03C0
F03E03C0
F03F0380
703F0780
787F0780
787F8780
78778700
38F38F00
38F3CF00
3CF3CF00
3DE3CE00
1DE1FE00
1DE1FE00
1FC1FE00
1FC0FC00
0FC0FC00
0F80FC00
0F807C00
ENDCHAR
STARTCHAR 1E85
ENCODING 7813
SWIDTH 792 0
DWIDTH 22 0
BBX 21 21 1 0
BITMAP
078F00
078F00
078F00
030600
000000
000000
E07038
E0F078
F0F878
F0F878
70F870
71FC70
79DCF0
79DCE0
3BDCE0
3B9EE0
3F8FE0
3F8FC0
1F8FC0
1F07C0
1F07C0
ENDCHAR
STARTCHAR 1EA0
ENCODING 7840
SWIDTH 648 0
DWIDTH 18 0
BBX 17 26 1 -7
BITMAP
03E000
03E000
03E000
07F000
077000
0F7000
0F7800
0E3800
1E3800
1E3C00
1C1C00
3FFE00
3FFE00
3FFE00
780F00
780F00
700F00
F00780
F00780
000000
000000
000000
01C000
03C000
01C000
018000
ENDCHAR
STARTCHAR 1EA1
ENCODING 7841
SWIDTH 612 0
DWIDTH 17 0
BBX 14 22 1 -7
BITMAP
1F3C
3FBC
7FFC
7C7C
F83C
F03C
F03C
F03C
F03C
F03C
F83C
787C
7FFC
3FFC
1FBC
0000
0000
0000
0380
07C0
0380
0300
ENDCHAR
STARTCHAR 1EA2
ENCODING 7842
SWIDTH 648 0
DWIDTH 18 0
BBX 17 27 1 0
BITMAP
03E000
07F000
077000
007000
00E000
010000
000000
000000
03E000
03E000
03E000
07F000
077000
0F7000
0F7800
0E3800
1E3800
1E3C00
1C1C00
3FFE00
3FFE00
3FFE00
780F00
780F00
700F00
F00780
F00780
ENDCHAR
STARTCHAR 1EA3
ENCODING 7843
SWIDTH 612 0
DWIDTH 17 0
BBX 14 22 1 0
BITMAP
07C0
0FE0
00E0
00E0
01C0
0200
0000
1F3C
3FBC
7FFC
7C7C
F83C
F03C
F03C
F03C
F03C
F03C
F83C
787C
7FFC
3FFC
1FBC
ENDCHAR
STARTCHAR 1EA4
ENCODING 7844
SWIDTH 648 0
DWIDTH 18 0
BBX 18 30 1 0
BITMAP
0003C0
0003C0
000780
000700
01CF00
03E000
07F000
0F7800
1E3C00
000000
000000
03E000
03E000
03E000
07F000
077000
0F7000
0F7800
0E3800
1E3800
1E3C00
1C1C00
3FFE00
3FFE00
3FFE00
780F00
780F00
700F00
F00780
F00780
ENDCHAR
STARTCHAR 1EA5
ENCODING 7845
SWIDTH 612 0
DWIDTH 17 0
BBX 17 25 1 0
BITMAP
000780
000780
000F00
000E00
039E00
07C000
0FE000
1EF000
3C7800
000000
1F3C00
3FBC00
7FFC00
7C7C00
F83C00
F03C00
F03C00
F03C00
F03C00
F03C00
F83C00
787C00
7FFC00
3FFC00
1FBC00
ENDCHAR
STARTCHAR 1EA6
ENCODING 7846
SWIDTH 648 0
DWIDTH 18 0
BBX 17 30 1 0
BITMAP
007800
003C00
001C00
001E00
01CE00
03E000
07F000
0F7800
1E3C00
000000
000000
03E000
03E000
03E000
07F000
077000
0F7000
0F7800
0E3800
1E3800
1E3C00
1C1C00
3FFE00
3FFE00
3FFE00
780F00
780F00
700F00
F00780
F00780
ENDCHAR
STARTCHAR 1EA7
ENCODING 7847
SWIDTH 612 0
DWIDTH 17 0
BBX 14 25 1 0
BITMAP
00F0
0078
0038
001C
039C
07C0
0FE0
1EF0
3C78
0000
1F3C
3FBC
7FFC
7C7C
F83C
F03C
F03C
F03C
F03C
F03C
F83C
787C
7FFC
3FFC
1FBC
ENDCHAR
STARTCHAR 1EA8
ENCODING 7848
SWIDTH 648 0
DWIDTH 18 0
BBX 17 31 1 0
BITMAP
000E00
003F80
003B80
000380
000300
01CE00
03E000
07F000
0F7800
1E3C00
000000
000000
03E000
03E000
03E000
07F000
077000
0F7000
0F7800
0E3800
1E3800
1E3C00
1C1C00
3FFE00
3FFE00
3FFE00
780F00
780F00
700F00
F00780
F00780
ENDCHAR
STARTCHAR 1EA9
ENCODING 7849
SWIDTH 612 0
DWIDTH 17 0
BBX 16 26 1 0
BITMAP
003E
007F
0073
0007
000E
039C
07C0
0FE0
1EF0
3C78
0000
1F3C
3FBC
7FFC
7C7C
F83C
F03C
F03C
F03C
F03C
F03C
F83C
787C
7FFC
3FFC
1FBC
ENDCHAR
STARTCHAR 1EAA
ENCODING 7850
SWIDTH 648 0
DWIDTH 18 0
BBX 17 30 1 0
BITMAP
079800
0FF800
0CF000
000000
01C000
03E000
07F000
0F7800
1E3C00
000000
000000
03E000
03E000
03E000
07F000
077000
0F7000
0F7800
0E3800
1E3800
1E3C00
1C1C00
3FFE00
3FFE00
3FFE00
780F00
780F00
700F00
F00780
F00780
ENDCHAR
STARTCHAR 1EAB
ENCODING 7851
SWIDTH 612 0
DWIDTH 17 0
BBX 14 26 1 0
BITMAP
0430
0FF0
1FF0
19E0
0000
0380
07C0
0FE0
1EF0
3C78
0000
1F3C
3FBC
7FFC
7C7C
F83C
F03C
F03C
F03C
F03C
F03C
F83C
787C
7FFC
3FFC
1FBC
ENDCHAR
STARTCHAR 1EAC
ENCODING 7852
SWIDTH 648 0
DWIDTH 18 0
BBX 17 33 1 -7
BITMAP
01C000
03E000
07F000
0F7800
1E3C00
000000
000000
03E000
03E000
03E000
07F000
077000
0F7000
0F7800
0E3800
1E3800
1E3C00
1C1C00
3FFE00
3FFE00
3FFE00
780F00
780F00
700F00
F00780
F00780
000000
000000
000000
01C000
03C000
01C000
018000
ENDCHAR
STARTCHAR 1EAD
ENCODING 7853
SWIDTH 612 0
DWIDTH 17 0
BBX 14 28 1 -7
BITMAP
0380
07C0
0FE0
1EF0
3C78
0000
1F3C
3FBC
7FFC
7C7C
F83C
F03C
F03C
F03C
F03C
F03C
F83C
787C
7FFC
3FFC
1FBC
0000
0000
0000
0380
07C0
0380
0300
ENDCHAR
STARTCHAR 1EAE
ENCODING 7854
SWIDTH 648 0
DWIDTH 18 0
BBX 17 32 1 0
BITMAP
003800
007800
007000
00E000
00E000
01C000
000000
1E3800
0FF800
07F000
008000
000000
000000
03E000
03E000
03E000
07F000
077000
0F7000
0F7800
0E3800
1E3800
1E3C00
1C1C00
3FFE00
3FFE00
3FFE00
780F00
780F00
700F00
F00780
F00780
ENDCHAR
STARTCHAR 1EAF
ENCODING 7855
SWIDTH 612 0
DWIDTH 17 0
BBX 14 27 1 0
BITMAP
0070
00F0
00E0
01C0
01C0
0380
0000
1C70
1FF0
07C0
0000
0000
1F3C
3FBC
7FFC
7C7C
F83C
F03C
F03C
F03C
F03C
F03C
F83C
787C
7FFC
3FFC
1FBC
ENDCHAR
STARTCHAR 1EB0
ENCODING 7856
SWIDTH 648 0
DWIDTH 18 0
BBX 17 32 1 0
BITMAP
1E0000
0F0000
070000
078000
038000
01C000
000000
0E3800
0FF800
07F000
008000
000000
000000
03E000
03E000
03E000
07F000
077000
0F7000
0F7800
0E3800
1E3800
1E3C00
1C1C00
3FFE00
3FFE00
3FFE00
780F00
780F00
700F00
F00780
F00780
ENDCHAR
STARTCHAR 1EB1
ENCODING 7857
SWIDTH 612 0
DWIDTH 17 0
BBX 14 27 1 0
BITMAP
1E00
1E00
0F00
0700
0780
0380
0000
1C70
0FF0
07E0
0000
0000
1F3C
3FBC
7FFC
7C7C
F83C
F03C
F03C
F03C
F03C
F03C
F83C
787C
7FFC
3FFC
1FBC
ENDCHAR
STARTCHAR 1EB2
ENCODING 7858
SWIDTH 648 0
DWIDTH 18 0
BBX 17 32 1 0
BITMAP
03C000
07F000
077000
007000
00E000
01C000
000000
1E3800
0FF800
07F000
008000
000000
000000
03E000
03E000
03E000
07F000
077000
0F7000
0F7800
0E3800
1E3800
1E3C00
1C1C00
3FFE00
3FFE00
3FFE00
780F00
780F00
700F00
F00780
F00780
ENDCHAR
STARTCHAR 1EB3
ENCODING 7859
SWIDTH 612 0
DWIDTH 17 0
BBX 14 27 1 0
BITMAP
07C0
0FE0
0EE0
00E0
01C0
0380
0000
1C70
1FF0
07C0
0000
0000
1F3C
3FBC
7FFC
7C7C
F83C
F03C
F03C
F03C
F03C
F03C
F83C
787C
7FFC
3FFC
1FBC
ENDCHAR
STARTCHAR 1EB4
ENCODING 7860
SWIDTH 648 0
DWIDTH 18 0
BBX 17 30 1 0
BITMAP
079800
0FF800
0DF000
0C0000
000000
1E3800
0FF800
07F000
008000
000000
000000
03E000
03E000
03E000
07F000
077000
0F7000
0F7800
0E3800
1E3800
1E3C00
1C1C00
3FFE00
3FFE00
3FFE00
780F00
780F00
700F00
F00780
F00780
ENDCHAR
STARTCHAR 1EB5
ENCODING 7861
SWIDTH 612 0
DWIDTH 17 0
BBX 14 25 1 0
BITMAP
0F30
1FF0
19E0
0000
0000
1C70
1FF0
07C0
0000
0000
1F3C
3FBC
7FFC
7C7C
F83C
F03C
F03C
F03C
F03C
F03C
F83C
787C
7FFC
3FFC
1FBC
ENDCHAR
STARTCHAR 1EB6
ENCODING 7862
SWIDTH 648 0
DWIDTH 18 0
BBX 17 32 1 -7
BITMAP
1E3800
0FF800
07F000
008000
000000
000000
03E000
03E000
03E000
07F000
077000
0F7000
0F7800
0E3800
1E3800
1E3C00
1C1C00
3FFE00
3FFE00
3FFE00
780F00
780F00
700F00
F00780
F00780
000000
000000
000000
01C000
03C000
01C000
018000
ENDCHAR
STARTCHAR 1EB7
ENCODING 7863
SWIDTH 612 0
DWIDTH 17 0
BBX 14 27 1 -7
BITMAP
1C70
1FF0
07C0
0000
0000
1F3C
3FBC
7FFC
7C7C
F83C
F03C
F03C
F03C
F03C
F03C
F83C
787C
7FFC
3FFC
1FBC
0000
0000
0000
0380
07C0
0380
0300
ENDCHAR
STARTCHAR 1EB8
ENCODING 7864
SWIDTH 540 0
DWIDTH 15 0
BBX 12 26 2 -7
BITMAP
FFF0
FFF0
FFF0
E000
E000
E000
E000
E000
FFE0
FFE0
FFE0
E000
E000
E000
E000
E000
FFF0
FFF0
FFF0
0000
0000
0000
0F00
0F00
0F00
0600
ENDCHAR
STARTCHAR 1EB9
ENCODING 7865
SWIDTH 576 0
DWIDTH 16 0
BBX 14 22 1 -7
BITMAP
0FC0
1FF0
3FF8
7878
7038
F03C
FFFC
FFFC
FFFC
F000
703C
7878
3FF8
3FF0
0FC0
0000
0000
0000
0380
0780
0780
0300
ENDCHAR
STARTCHAR 1EBA
ENCODING 7866
SWIDTH 540 0
DWIDTH 15 0
BBX 12 27 2 0
BITMAP
1F80
1F80
3980
0180
0700
0000
0000
0000
FFF0
FFF0
FFF0
E000
E000
E000
E000
E000
FFE0
FFE0
FFE0
E000
E000
E000
E000
E000
FFF0
FFF0
FFF0
ENDCHAR
STARTCHAR 1EBB
ENCODING 7867
SWIDTH 576 0
DWIDTH 16 0
BBX 14 22 1 0
BITMAP
0FC0
0FE0
00E0
00C0
0380
0000
0000
0FC0
1FF0
3FF8
7878
7038
F03C
FFFC
FFFC
FFFC
F000
703C
7878
3FF8
3FF0
0FC0
ENDCHAR
STARTCHAR 1EBC
ENCODING 7868
SWIDTH 540 0
DWIDTH 15 0
BBX 12 26 2 0
BITMAP
00C0
3EC0
3FC0
33C0
0000
0000
0000
FFF0
FFF0
FFF0
E000
E000
E000
E000
E000
FFE0
FFE0
FFE0
E000
E000
E000
E000
E000
FFF0
FFF0
FFF0
ENDCHAR
STARTCHAR 1EBD
ENCODING 7869
SWIDTH 576 0
DWIDTH 16 0
BBX 14 21 1 0
BITMAP
0E30
1FF0
1FE0
19C0
0000
0000
0FC0
1FF0
3FF8
7878
7038
F03C
FFFC
FFFC
FFFC
F000
703C
7878
3FF8
3FF0
0FC0
ENDCHAR
STARTCHAR 1EBE
ENCODING 7870
SWIDTH 540 0
DWIDTH 15 0
BBX 16 30 2 0
BITMAP
000F
000E
001C
003C
0F38
0F00
1F80
39C0
70E0
0000
0000
FFF0
FFF0
FFF0
E000
E000
E000
E000
E000
FFE0
FFE0
FFE0
E000
E000
E000
E000
E000
FFF0
FFF0
FFF0
ENDCHAR
STARTCHAR 1EBF
ENCODING 7871
SWIDTH 576 0
DWIDTH 16 0
BBX 17 25 1 0
BITMAP
000780
000700
000E00
000E00
079C00
07C000
0FE000
1CF000
387800
000000
0FC000
1FF000
3FF800
787800
703800
F03C00
FFFC00
FFFC00
FFFC00
F00000
703C00
787800
3FF800
3FF000
0FC000
ENDCHAR
STARTCHAR 1EC0
ENCODING 7872
SWIDTH 540 0
DWIDTH 15 0
BBX 13 30 2 0
BITMAP
01E0
00E0
00F0
0070
0F38
0F00
1F80
39C0
70E0
0000
0000
FFF0
FFF0
FFF0
E000
E000
E000
E000
E000
FFE0
FFE0
FFE0
E000
E000
E000
E000
E000
FFF0
FFF0
FFF0
ENDCHAR
STARTCHAR 1EC1
ENCODING 7873
SWIDTH 576 0
DWIDTH 16 0
BBX 14 25 1 0
BITMAP
00F0
0070
0038
0038
079C
07C0
0FE0
1CF0
3878
0000
0FC0
1FF0
3FF8
7878
7038
F03C
FFFC
FFFC
FFFC
F000
703C
7878
3FF8
3FF0
0FC0
ENDCHAR
STARTCHAR 1EC2
ENCODING 7874
SWIDTH 540 0
DWIDTH 15 0
BBX 15 31 2 0
BITMAP
0078
00FC
00EE
000E
001C
0F38
0F00
1F80
39C0
70E0
0000
0000
FFF0
FFF0
FFF0
E000
E000
E000
E000
E000
FFE0
FFE0
FFE0
E000
E000
E000
E000
E000
FFF0
FFF0
FFF0
ENDCHAR
STARTCHAR 1EC3
ENCODING 7875
SWIDTH 576 0
DWIDTH 16 0
BBX 16 26 1 0
BITMAP
003E
007F
0077
0007
000E
079C
07C0
0FE0
1CF0
3878
0000
0FC0
1FF0
3FF8
7878
7038
F03C
FFFC
FFFC
FFFC
F000
703C
7878
3FF8
3FF0
0FC0
ENDCHAR
STARTCHAR 1EC4
ENCODING 7876
SWIDTH 540 0
DWIDTH 15 0
BBX 12 30 2 0
BITMAP
3EC0
3FC0
37C0
0000
0E00
1F00
1F80
39C0
70E0
0000
0000
FFF0
FFF0
FFF0
E000
E000
E000
E000
E000
FFE0
FFE0
FFE0
E000
E000
E000
E000
E000
FFF0
FFF0
FFF0
ENDCHAR
STARTCHAR 1EC5
ENCODING 7877
SWIDTH 576 0
DWIDTH 16 0
BBX 14 26 1 0
BITMAP
0430
1FF0
1FE0
19E0
0000
0780
07C0
0FE0
1CF0
3878
0000
0FC0
1FF0
3FF8
7878
7038
F03C
FFFC
FFFC
FFFC
F000
703C
7878
3FF8
3FF0
0FC0
ENDCHAR
STARTCHAR 1EC6
ENCODING 7878
SWIDTH 540 0
DWIDTH 15 0
BBX 12 33 2 -7
BITMAP
0F00
0F00
1F80
39C0
70E0
0000
0000
FFF0
FFF0
FFF0
E000
E000
E000
E000
E000
FFE0
FFE0
FFE0
E000
E000
E000
E000
E000
FFF0
FFF0
FFF0
0000
0000
0000
0F00
0F00
0F00
0600
ENDCHAR
STARTCHAR 1EC7
ENCODING 7879
SWIDTH 576 0
DWIDTH 16 0
BBX 14 28 1 -7
BITMAP
0780
07C0
0FE0
1CF0
3878
0000
0FC0
1FF0
3FF8
7878
7038
F03C
FFFC
FFFC
FFFC
F000
703C
7878
3FF8
3FF0
0FC0
0000
0000
0000
0380
0780
0780
0300
ENDCHAR
STARTCHAR 1EC8
ENCODING 7880
SWIDTH 252 0
DWIDTH 7 0
BBX 7 27 0 0
BITMAP
7C
FE
E6
0E
1C
00
00
00
3C
3C
3C
3C
3C
3C
3C
3C
3C
3C
3C
3C
3C
3C
3C
3C
3C
3C
3C
ENDCHAR
STARTCHAR 1EC9
ENCODING 7881
SWIDTH 252 0
DWIDTH 7 0
BBX 7 22 0 0
BITMAP
7E
FE
06
0E
1C
00
00
3C
3C
3C
3C
3C
3C
3C
3C
3C
3C
3C
3C
3C
3C
3C
ENDCHAR
STARTCHAR 1ECA
ENCODING 7882
SWIDTH 252 0
DWIDTH 7 0
BBX 4 26 2 -7
BITMAP
F0
F0
F0
F0
F0
F0
F0
F0
F0
F0
F0
F0
F0
F0
F0
F0
F0
F0
F0
00
00
00
E0
F0
F0
60
ENDCHAR
STARTCHAR 1ECB
ENCODING 7883
SWIDTH 252 0
DWIDTH 7 0
BBX 4 28 2 -7
BITMAP
F0
F0
F0
60
00
00
F0
F0
F0
F0
F0
F0
F0
F0
F0
F0
F0
F0
F0
F0
F0
00
00
00
F0
F0
F0
60
ENDCHAR
STARTCHAR 1ECC
ENCODING 7884
SWIDTH 720 0
DWIDTH 20 0
BBX 18 27 1 -7
BITMAP
03F000
0FFC00
1FFE00
3FFF00
7C0F80
7C0780
780780
F807C0
F003C0
F003C0
F003C0
F003C0
F003C0
7807C0
780780
7C0F80
3F3F00
1FFF00
0FFC00
07F800
000000
000000
000000
01E000
01E000
01E000
00C000
ENDCHAR
STARTCHAR 1ECD
ENCODING 7885
SWIDTH 576 0
DWIDTH 16 0
BBX 14 22 1 -7
BITMAP
0FC0
1FF0
3FF8
7C78
783C
F03C
F03C
F03C
F03C
F03C
783C
7878
3FF8
3FF0
0FC0
0000
0000
0000
0380
0780
0780
0300
ENDCHAR
STARTCHAR 1ECE
ENCODING 7886
SWIDTH 720 0
DWIDTH 20 0
BBX 18 27 1 0
BITMAP
01F000
03F000
073800
003000
00F000
000000
000000
03F000
0FFC00
1FFE00
3FFF00
7C0F80
7C0780
780780
F807C0
F003C0
F003C0
F003C0
F003C0
F003C0
7807C0
780780
7C0F80
3F3F00
1FFF00
0FFC00
07F800
ENDCHAR
STARTCHAR 1ECF
ENCODING 7887
SWIDTH 576 0
DWIDTH 16 0
BBX 14 22 1 0
BITMAP
0FC0
0FE0
00E0
00C0
0380
0000
0000
0FC0
1FF0
3FF8
7C78
783C
F03C
F03C
F03C
F03C
F03C
783C
7878
3FF8
3FF0
0FC0
ENDCHAR
STARTCHAR 1ED0
ENCODING 7888
SWIDTH 720 0
DWIDTH 20 0
BBX 19 30 1 0
BITMAP
0001E0
0001C0
0003C0
000380
00E700
01F000
03F000
073800
0E1C00
000000
03F000
0FFC00
1FFE00
3FFF00
7C0F80
7C0780
780780
F807C0
F003C0
F003C0
F003C0
F003C0
F003C0
7807C0
780780
7C0F80
3F3F00
1FFF00
0FFC00
07F800
ENDCHAR
STARTCHAR 1ED1
ENCODING 7889
SWIDTH 576 0
DWIDTH 16 0
BBX 17 25 1 0
BITMAP
000780
000700
000E00
000E00
079C00
07C000
0FE000
1CF000
387800
000000
0FC000
1FF000
3FF800
7C7800
783C00
F03C00
F03C00
F03C00
F03C00
F03C00
783C00
787800
3FF800
3FF000
0FC000
ENDCHAR
STARTCHAR 1ED2
ENCODING 7890
SWIDTH 720 0
DWIDTH 20 0
BBX 18 30 1 0
BITMAP
003C00
001C00
001E00
000E00
00E700
01F000
03F000
073800
0E1C00
000000
03F000
0FFC00
1FFE00
3FFF00
7C0F80
7C0780
780780
F807C0
F003C0
F003C0
F003C0
F003C0
F003C0
7807C0
780780
7C0F80
3F3F00
1FFF00
0FFC00
07F800
ENDCHAR
STARTCHAR 1ED3
ENCODING 7891
SWIDTH 576 0
DWIDTH 16 0
BBX 14 25 1 0
BITMAP
00F0
0070
0038
0038
079C
07C0
0FE0
1CF0
3878
0000
0FC0
1FF0
3FF8
7C78
783C
F03C
F03C
F03C
F03C
F03C
783C
7878
3FF8
3FF0
0FC0
ENDCHAR
STARTCHAR 1ED4
ENCODING 7892
SWIDTH 720 0
DWIDTH 20 0
BBX 18 31 1 0
BITMAP
000F00
001F80
001DC0
0001C0
000380
00E700
01F000
03F000
073800
0E1C00
000000
03F000
0FFC00
1FFE00
3FFF00
7C0F80
7C0780
780780
F807C0
F003C0
F003C0
F003C0
F003C0
F003C0
7807C0
780780
7C0F80
3F3F00
1FFF00
0FFC00
07F800
ENDCHAR
STARTCHAR 1ED5
ENCODING 7893
SWIDTH 576 0
DWIDTH 16 0
BBX 16 26 1 0
BITMAP
003E
007F
0077
0007
000E
079C
07C0
0FE0
1CF0
3878
0000
0FC0
1FF0
3FF8
7C78
783C
F03C
F03C
F03C
F03C
F03C
783C
7878
3FF8
3FF0
0FC0
ENDCHAR
STARTCHAR 1ED6
ENCODING 7894
SWIDTH 720 0
DWIDTH 20 0
BBX 18 30 1 0
BITMAP
07D800
07F800
067800
000000
01E000
01E000
03F000
073800
0E1C00
000000
03F000
0FFC00
1FFE00
3FFF00
7C0F80
7C0780
780780
F807C0
F003C0
F003C0
F003C0
F003C0
F003C0
7807C0
780780
7C0F80
3F3F00
1FFF00
0FFC00
07F800
ENDCHAR
STARTCHAR 1ED7
ENCODING 7895
SWIDTH 576 0
DWIDTH 16 0
BBX 14 26 1 0
BITMAP
0430
1FF0
1FE0
19E0
0000
0780
0FC0
0FE0
1CF0
3870
0000
0FC0
1FF0
3FF8
7C78
783C
F03C
F03C
F03C
F03C
F03C
783C
7878
3FF8
3FF0
0FC0
ENDCHAR
STARTCHAR 1ED8
ENCODING 7896
SWIDTH 720 0
DWIDTH 20 0
BBX 18 33 1 -7
BITMAP
00E000
01F000
03F000
073800
0E1C00
000000
03F000
0FFC00
1FFE00
3FFF00
7C0F80
7C0780
780780
F807C0
F003C0
F003C0
F003C0
F003C0
F003C0
7807C0
780780
7C0F80
3F3F00
1FFF00
0FFC00
07F800
000000
000000
000000
01E000
01E000
01E000
00C000
ENDCHAR
STARTCHAR 1ED9
ENCODING 7897
SWIDTH 576 0
DWIDTH 16 0
BBX 14 28 1 -7
BITMAP
0780
07C0
0FE0
1CF0
3878
0000
0FC0
1FF0
3FF8
7C78
783C
F03C
F03C
F03C
F03C
F03C
783C
7878
3FF8
3FF0
0FC0
0000
0000
0000
0380
0780
0780
0300
ENDCHAR
STARTCHAR 1EDA
ENCODING 7898
SWIDTH 720 0
DWIDTH 20 0
BBX 18 27 1 0
BITMAP
003C00
003800
007800
007000
00E000
000180
000180
03E780
0FFF00
1FFE00
3FFF00
7C0F80
7C0780
780780
F807C0
F003C0
F003C0
F003C0
F003C0
F003C0
7807C0
780780
7C0F80
3F3F00
1FFF00
0FFC00
07F800
ENDCHAR
STARTCHAR 1EDB
ENCODING 7899
SWIDTH 576 0
DWIDTH 16 0
BBX 15 22 1 0
BITMAP
00F0
00E0
01E0
01C0
038E
000E
000E
0FFC
1FFC
3FF8
7C78
783C
F03C
F03C
F03C
F03C
F03C
783C
7878
3FF8
3FF0
0FC0
ENDCHAR
STARTCHAR 1EDC
ENCODING 7900
SWIDTH 720 0
DWIDTH 20 0
BBX 18 27 1 0
BITMAP
0F0000
078000
038000
03C000
01C000
000180
000180
03E780
0FFF00
1FFE00
3FFF00
7C0F80
7C0780
780780
F807C0
F003C0
F003C0
F003C0
F003C0
F003C0
7807C0
780780
7C0F80
3F3F00
1FFF00
0FFC00
07F800
ENDCHAR
STARTCHAR 1EDD
ENCODING 7901
SWIDTH 576 0
DWIDTH 16 0
BBX 15 22 1 0
BITMAP
3C00
1E00
0E00
0F00
070E
000E
000E
0FFC
1FFC
3FF8
7C78
783C
F03C
F03C
F03C
F03C
F03C
783C
7878
3FF8
3FF0
0FC0
ENDCHAR
STARTCHAR 1EDE
ENCODING 7902
SWIDTH 720 0
DWIDTH 20 0
BBX 18 27 1 0
BITMAP
01F000
03F000
073800
003000
00F000
000180
000180
03E780
0FFF00
1FFE00
3FFF00
7C0F80
7C0780
780780
F807C0
F003C0
F003C0
F003C0
F003C0
F003C0
7807C0
780780
7C0F80
3F3F00
1FFF00
0FFC00
07F800
ENDCHAR
STARTCHAR 1EDF
ENCODING 7903
SWIDTH 576 0
DWIDTH 16 0
BBX 15 22 1 0
BITMAP
0FC0
0FE0
00E0
00C0
038E
000E
000E
0FFC
1FFC
3FF8
7C78
783C
F03C
F03C
F03C
F03C
F03C
783C
7878
3FF8
3FF0
0FC0
ENDCHAR
STARTCHAR 1EE0
ENCODING 7904
SWIDTH 720 0
DWIDTH 20 0
BBX 18 26 1 0
BITMAP
011800
07D800
07F800
067800
000180
000180
03E780
0FFF00
1FFE00
3FFF00
7C0F80
7C0780
780780
F807C0
F003C0
F003C0
F003C0
F003C0
F003C0
7807C0
780780
7C0F80
3F3F00
1FFF00
0FFC00
07F800
ENDCHAR
STARTCHAR 1EE1
ENCODING 7905
SWIDTH 576 0
DWIDTH 16 0
BBX 15 21 1 0
BITMAP
0E30
1FE0
1FE0
19CE
000E
000E
0FFC
1FFC
3FF8
7C78
783C
F03C
F03C
F03C
F03C
F03C
783C
7878
3FF8
3FF0
0FC0
ENDCHAR
STARTCHAR 1EE2
ENCODING 7906
SWIDTH 720 0
DWIDTH 20 0
BBX 18 29 1 -7
BITMAP
000180
000180
03E780
0FFF00
1FFE00
3FFF00
7C0F80
7C0780
780780
F807C0
F003C0
F003C0
F003C0
F003C0
F003C0
7807C0
780780
7C0F80
3F3F00
1FFF00
0FFC00
07F800
000000
000000
000000
01E000
01E000
01E000
00C000
ENDCHAR
STARTCHAR 1EE3
ENCODING 7907
SWIDTH 576 0
DWIDTH 16 0
BBX 15 25 1 -7
BITMAP
000E
000E
000E
0FFC
1FFC
3FF8
7C78
783C
F03C
F03C
F03C
F03C
F03C
783C
7878
3FF8
3FF0
0FC0
0000
0000
0000
0380
0780
0780
0300
ENDCHAR
STARTCHAR 1EE4
ENCODING 7908
SWIDTH 684 0
DWIDTH 19 0
BBX 15 26 2 -7
BITMAP
E00E
E00E
E00E
E00E
E00E
E00E
E00E
E00E
E00E
E00E
E00E
E00E
F01E
F01E
F83E
7EFC
7FFC
3FF8
0FE0
0000
0000
0000
0380
03C0
0380
0180
ENDCHAR
STARTCHAR 1EE5
ENCODING 7909
SWIDTH 576 0
DWIDTH 16 0
BBX 13 22 2 -7
BITMAP
E078
E078
E078
E078
E078
E078
E078
E078
E078
E078
F078
F0F8
FFF8
7F78
3E78
0000
0000
0000
0F00
0F00
0F00
0600
ENDCHAR
STARTCHAR 1EE6
ENCODING 7910
SWIDTH 684 0
DWIDTH 19 0
BBX 15 27 2 0
BITMAP
07C0
0FE0
0EE0
00E0
01C0
0200
0000
0000
E00E
E00E
E00E
E00E
E00E
E00E
E00E
E00E
E00E
E00E
E00E
E00E
F01E
F01E
F83E
7EFC
7FFC
3FF8
0FE0
ENDCHAR
STARTCHAR 1EE7
ENCODING 7911
SWIDTH 576 0
DWIDTH 16 0
BBX 13 22 2 0
BITMAP
1F80
1F80
0180
0380
0700
0000
0000
E078
E078
E078
E078
E078
E078
E078
E078
E078
E078
F078
F0F8
FFF8
7F78
3E78
ENDCHAR
STARTCHAR 1EE8
ENCODING 7912
SWIDTH 684 0
DWIDTH 19 0
BBX 19 27 2 0
BITMAP
007000
00F000
00E000
01C000
01C000
0000E0
0000E0
0003C0
E00FC0
E00E00
E00E00
E00E00
E00E00
E00E00
E00E00
E00E00
E00E00
E00E00
E00E00
E00E00
F01E00
F01E00
F83E00
7EFC00
7FFC00
3FF800
0FE000
ENDCHAR
STARTCHAR 1EE9
ENCODING 7913
SWIDTH 576 0
DWIDTH 16 0
BBX 16 22 2 0
BITMAP
01E0
03C0
0380
0780
0707
0007
0007
E07F
E07E
E078
E078
E078
E078
E078
E078
E078
E078
F078
F0F8
FFF8
7F78
3E78
ENDCHAR
STARTCHAR 1EEA
ENCODING 7914
SWIDTH 684 0
DWIDTH 19 0
BBX 19 27 2 0
BITMAP
1C0000
1E0000
0E0000
070000
078000
0000E0
0000E0
0003C0
E00FC0
E00E00
E00E00
E00E00
E00E00
E00E00
E00E00
E00E00
E00E00
E00E00
E00E00
E00E00
F01E00
F01E00
F83E00
7EFC00
7FFC00
3FF800
0FE000
ENDCHAR
STARTCHAR 1EEB
ENCODING 7915
SWIDTH 576 0
DWIDTH 16 0
BBX 16 22 2 0
BITMAP
7800
3C00
1C00
1E00
0E07
0007
0007
E07F
E07E
E078
E078
E078
E078
E078
E078
E078
E078
F078
F0F8
FFF8
7F78
3E78
ENDCHAR
STARTCHAR 1EEC
ENCODING 7916
SWIDTH 684 0
DWIDTH 19 0
BBX 19 27 2 0
BITMAP
07C000
0FE000
0EE000
00E000
01C000
0200E0
0000E0
0003C0
E00FC0
E00E00
E00E00
E00E00
E00E00
E00E00
E00E00
E00E00
E00E00
E00E00
E00E00
E00E00
F01E00
F01E00
F83E00
7EFC00
7FFC00
3FF800
0FE000
ENDCHAR
STARTCHAR 1EED
ENCODING 7917
SWIDTH 576 0
DWIDTH 16 0
BBX 16 22 2 0
BITMAP
1F80
1F80
0180
0380
0707
0007
0007
E07F
E07E
E078
E078
E078
E078
E078
E078
E078
E078
F078
F0F8
FFF8
7F78
3E78
ENDCHAR
STARTCHAR 1EEE
ENCODING 7918
SWIDTH 684 0
DWIDTH 19 0
BBX 19 26 2 0
BITMAP
003000
0FB000
1FF000
19E000
0000E0
0000E0
0003C0
E00FC0
E00E00
E00E00
E00E00
E00E00
E00E00
E00E00
E00E00
E00E00
E00E00
E00E00
E00E00
F01E00
F01E00
F83E00
7EFC00
7FFC00
3FF800
0FE000
ENDCHAR
STARTCHAR 1EEF
ENCODING 7919
SWIDTH 576 0
DWIDTH 16 0
BBX 16 21 2 0
BITMAP
0C60
3FE0
3FE0
31C7
0007
0007
E07F
E07E
E078
E078
E078
E078
E078
E078
E078
E078
F078
F0F8
FFF8
7F78
3E78
ENDCHAR
STARTCHAR 1EF0
ENCODING 7920
SWIDTH 684 0
DWIDTH 19 0
BBX 19 29 2 -7
BITMAP
0000E0
0000E0
0003C0
E00FC0
E00E00
E00E00
E00E00
E00E00
E00E00
E00E00
E00E00
E00E00
E00E00
E00E00
E00E00
F01E00
F01E00
F83E00
7EFC00
7FFC00
3FF800
0FE000
000000
000000
000000
038000
03C000
038000
018000
ENDCHAR
STARTCHAR 1EF1
ENCODING 7921
SWIDTH 576 0
DWIDTH 16 0
BBX 16 25 2 -7
BITMAP
0007
0007
0007
E07F
E07E
E078
E078
E078
E078
E078
E078
E078
E078
F078
F0F8
FFF8
7F78
3E78
0000
0000
0000
0F00
0F00
0F00
0600
ENDCHAR
STARTCHAR 1EF2
ENCODING 7922
SWIDTH 612 0
DWIDTH 17 0
BBX 16 27 1 0
BITMAP
1E00
0E00
0F00
0700
0380
0000
0000
0000
F00F
781E
781E
3C3C
3C3C
1E78
1E78
0FF0
0FF0
07E0
07E0
03C0
03C0
03C0
03C0
03C0
03C0
03C0
03C0
ENDCHAR
STARTCHAR 1EF3
ENCODING 7923
SWIDTH 540 0
DWIDTH 15 0
BBX 14 28 1 -6
BITMAP
3C00
1C00
1E00
0E00
0700
0000
0000
F03C
F03C
F078
7078
7870
78F0
38F0
3CE0
1DE0
1DE0
1FC0
0FC0
0F80
0F80
0780
0700
0F00
1E00
FE00
FC00
F800
ENDCHAR
STARTCHAR 1EF4
ENCODING 7924
SWIDTH 612 0
DWIDTH 17 0
BBX 16 26 1 -7
BITMAP
F00F
781E
781E
3C3C
3C3C
1E78
1E78
0FF0
0FF0
07E0
07E0
03C0
03C0
03C0
03C0
03C0
03C0
03C0
03C0
0000
0000
0000
03C0
03C0
03C0
0180
ENDCHAR
STARTCHAR 1EF5
ENCODING 7925
SWIDTH 540 0
DWIDTH 15 0
BBX 14 22 1 -7
BITMAP
F03C
F03C
F078
7078
7870
78F0
38F0
3CE0
1DE0
1DE0
1FC0
0FC0
0F80
0F80
0780
0700
0F00
1E00
FE38
FC78
F838
0038
ENDCHAR
STARTCHAR 1EF6
ENCODING 7926
SWIDTH 612 0
DWIDTH 17 0
BBX 16 27 1 0
BITMAP
07E0
07E0
0E60
0060
01C0
0000
0000
0000
F00F
781E
781E
3C3C
3C3C
1E78
1E78
0FF0
0FF0
07E0
07E0
03C0
03C0
03C0
03C0
03C0
03C0
03C0
03C0
ENDCHAR
STARTCHAR 1EF7
ENCODING 7927
SWIDTH 540 0
DWIDTH 15 0
BBX 14 28 1 -6
BITMAP
0FC0
1FC0
00C0
01C0
0380
0000
0000
F03C
F03C
F078
7078
7870
78F0
38F0
3CE0
1DE0
1DE0
1FC0
0FC0
0F80
0F80
0780
0700
0F00
1E00
FE00
FC00
F800
ENDCHAR
STARTCHAR 1EF8
ENCODING 7928
SWIDTH 612 0
DWIDTH 17 0
BBX 16 26 1 0
BITMAP
0030
0FB0
0FF0
1CE0
0000
0000
0000
F00F
781E
781E
3C3C
3C3C
1E78
1E78
0FF0
0FF0
07E0
07E0
03C0
03C0
03C0
03C0
03C0
03C0
03C0
03C0
ENDCHAR
STARTCHAR 1EF9
ENCODING 7929
SWIDTH 540 0
DWIDTH 15 0
BBX 14 27 1 -6
BITMAP
0C60
1FE0
3FE0
31C0
0000
0000
F03C
F03C
F078
7078
7870
78F0
38F0
3CE0
1DE0
1DE0
1FC0
0FC0
0F80
0F80
0780
0700
0F00
1E00
FE00
FC00
F800
ENDCHAR
STARTCHAR 2013
ENCODING 8211
SWIDTH 612 0
DWIDTH 17 0
BBX 12 3 3 7
BITMAP
FFF0
FFF0
FFF0
ENDCHAR
STARTCHAR 2014
ENCODING 8212
SWIDTH 756 0
DWIDTH 21 0
BBX 15 3 3 7
BITMAP
FFFE
FFFE
FFFE
ENDCHAR
STARTCHAR 2018
ENCODING 8216
SWIDTH 288 0
DWIDTH 8 0
BBX 4 9 2 13
BITMAP
20
60
C0
80
C0
F0
F0
F0
20
ENDCHAR
STARTCHAR 2019
ENCODING 8217
SWIDTH 252 0
DWIDTH 7 0
BBX 5 9 2 13
BITMAP
20
F0
F8
F8
18
18
10
60
40
ENDCHAR
STARTCHAR 201A
ENCODING 8218
SWIDTH 288 0
DWIDTH 8 0
BBX 5 9 2 -5
BITMAP
60
F0
F8
F8
38
18
10
30
60
ENDCHAR
STARTCHAR 201C
ENCODING 8220
SWIDTH 504 0
DWIDTH 14 0
BBX 11 9 2 13
BITMAP
2040
60C0
C100
8300
C300
F3E0
F3E0
F1E0
2000
ENDCHAR
STARTCHAR 201D
ENCODING 8221
SWIDTH 540 0
DWIDTH 15 0
BBX 11 8 2 13
BITMAP
70C0
F1E0
F9E0
F9E0
1820
1020
3060
60C0
ENDCHAR
STARTCHAR 201E
ENCODING 8222
SWIDTH 540 0
DWIDTH 15 0
BBX 11 8 2 -4
BITMAP
F1E0
F1E0
F9E0
3860
1020
3060
60C0
4080
ENDCHAR
STARTCHAR 2020
ENCODING 8224
SWIDTH 576 0
DWIDTH 16 0
BBX 12 26 2 -7
BITMAP
0700
0700
0700
0700
FFF0
FFF0
FFF0
FFF0
0700
0700
0700
0700
0700
0700
0700
0700
0700
0700
0700
0700
0700
0700
0700
0700
0700
0700
ENDCHAR
STARTCHAR 2021
ENCODING 8225
SWIDTH 576 0
DWIDTH 16 0
BBX 12 26 2 -7
BITMAP
0700
0700
0700
0700
FFF0
FFF0
FFF0
FFF0
0700
0700
0700
0700
0700
0700
0700
0700
0700
0700
FFF0
FFF0
FFF0
0700
0700
0700
0700
0700
ENDCHAR
STARTCHAR 2022
ENCODING 8226
SWIDTH 468 0
DWIDTH 13 0
BBX 6 6 2 7
BITMAP
78
FC
FC
FC
FC
78
ENDCHAR
STARTCHAR 2026
ENCODING 8230
SWIDTH 864 0
DWIDTH 24 0
BBX 20 4 2 0
BITMAP
7070E0
78F1F0
F8F1F0
70F0E0
ENDCHAR
STARTCHAR 2030
ENCODING 8240
SWIDTH 1116 0
DWIDTH 31 0
BBX 30 20 1 0
BITMAP
18000000
7E070000
FE0F0000
E60E0000
E71E0000
E61C0000
7E3C0000
7C380000
00780000
00700000
00F00000
00E00000
01E1C060
01C3E1F8
03C771F8
0386339C
0706339C
0707739C
0E07F1F8
0E03E0F8
ENDCHAR
STARTCHAR 2039
ENCODING 8249
SWIDTH 396 0
DWIDTH 11 0
BBX 9 12 1 3
BITMAP
0780
0F00
0E00
1C00
3C00
7800
F000
7800
3C00
1E00
0E00
0780
ENDCHAR
STARTCHAR 203A
ENCODING 8250
SWIDTH 396 0
DWIDTH 11 0
BBX 9 12 1 3
BITMAP
F000
7800
3C00
1E00
0E00
0700
0780
0F00
1E00
1C00
3800
7800
ENDCHAR
STARTCHAR 2044
ENCODING 8260
SWIDTH 504 0
DWIDTH 14 0
BBX 14 19 0 0
BITMAP
003C
0038
0078
0070
00E0
01E0
01C0
03C0
0380
0700
0F00
0E00
1E00
1C00
3800
7800
7000
F000
E000
ENDCHAR
STARTCHAR 2070
ENCODING 8304
SWIDTH 324 0
DWIDTH 9 0
BBX 8 10 1 11
BITMAP
7C
7E
E7
C7
C7
C7
C7
E7
FE
7C
ENDCHAR
STARTCHAR 2074
ENCODING 8308
SWIDTH 324 0
DWIDTH 9 0
BBX 8 10 1 11
BITMAP
1C
3C
3C
6C
6C
CC
FF
FF
0C
0C
ENDCHAR
STARTCHAR 2075
ENCODING 8309
SWIDTH 288 0
DWIDTH 8 0
BBX 7 10 1 11
BITMAP
FE
FE
C0
DC
FE
C6
06
C6
FE
7C
ENDCHAR
STARTCHAR 2076
ENCODING 8310
SWIDTH 288 0
DWIDTH 8 0
BBX 7 10 1 11
BITMAP
38
30
60
78
FE
C6
C6
C6
FE
7C
ENDCHAR
STARTCHAR 2077
ENCODING 8311
SWIDTH 288 0
DWIDTH 8 0
BBX 7 10 1 11
BITMAP
FE
FE
0E
0C
1C
18
18
30
30
60
ENDCHAR
STARTCHAR 2078
ENCODING 8312
SWIDTH 324 0
DWIDTH 9 0
BBX 7 11 1 10
BITMAP
7C
FE
C6
C6
7C
FE
C6
C6
EE
FE
10
ENDCHAR
STARTCHAR 2079
ENCODING 8313
SWIDTH 288 0
DWIDTH 8 0
BBX 7 10 1 11
BITMAP
7C
FE
C6
C6
C6
FE
3C
0C
18
38
ENDCHAR
STARTCHAR 2080
ENCODING 8320
SWIDTH 324 0
DWIDTH 9 0
BBX 8 11 1 -7
BITMAP
18
7E
EE
E7
C7
C7
C7
C7
E6
7E
3C
ENDCHAR
STARTCHAR 2081
ENCODING 8321
SWIDTH 252 0
DWIDTH 7 0
BBX 6 10 1 -7
BITMAP
70
F0
F0
B0
30
30
30
30
FC
FC
ENDCHAR
STARTCHAR 2082
ENCODING 8322
SWIDTH 288 0
DWIDTH 8 0
BBX 7 11 1 -7
BITMAP
10
7C
FE
C6
0E
0C
1C
70
E0
FE
FE
ENDCHAR
STARTCHAR 2083
ENCODING 8323
SWIDTH 324 0
DWIDTH 9 0
BBX 7 11 1 -7
BITMAP
38
7E
EE
06
0E
1C
0E
06
C6
FE
7C
ENDCHAR
STARTCHAR 2084
ENCODING 8324
SWIDTH 324 0
DWIDTH 9 0
BBX 8 10 1 -7
BITMAP
1C
3C
3C
6C
CC
CC
FF
FF
0C
0C
ENDCHAR
STARTCHAR 2085
ENCODING 8325
SWIDTH 288 0
DWIDTH 8 0
BBX 7 10 1 -7
BITMAP
FE
FE
C0
FC
FE
C6
06
CE
FE
7C
ENDCHAR
STARTCHAR 2086
ENCODING 8326
SWIDTH 288 0
DWIDTH 8 0
BBX 7 10 1 -7
BITMAP
38
30
60
FC
FE
C6
C6
C6
FE
7C
ENDCHAR
STARTCHAR 2087
ENCODING 8327
SWIDTH 288 0
DWIDTH 8 0
BBX 7 10 1 -7
BITMAP
FE
FE
0E
0C
1C
18
38
30
30
60
ENDCHAR
STARTCHAR 2088
ENCODING 8328
SWIDTH 324 0
DWIDTH 9 0
BBX 7 11 1 -7
BITMAP
38
7E
EE
C6
EE
7C
EE
C6
C6
FE
7C
ENDCHAR
STARTCHAR 2089
ENCODING 8329
SWIDTH 288 0
DWIDTH 8 0
BBX 7 10 1 -6
BITMAP
7C
EE
C6
C6
EE
7E
0C
1C
18
30
ENDCHAR
STARTCHAR 20AB
ENCODING 8363
SWIDTH 576 0
DWIDTH 16 0
BBX 15 23 1 0
BITMAP
003C
003C
01FE
01FE
003C
1F3C
3FBC
7FFC
FCFC
F07C
F03C
F03C
F03C
F07C
F87C
7FFC
7FFC
3FBC
0400
0000
0000
3FFC
3FFC
ENDCHAR
STARTCHAR 20AC
ENCODING 8364
SWIDTH 648 0
DWIDTH 18 0
BBX 18 19 0 0
BITMAP
01FC00
07FE00
0FFF00
0F8F80
1E0780
1E03C0
3E03C0
FFE000
FFE000
3C0000
FFE000
FFE000
1E0000
1E03C0
1F0780
0F8F80
0FFF00
07FE00
01FC00
ENDCHAR
STARTCHAR 2122
ENCODING 8482
SWIDTH 396 0
DWIDTH 11 0
BBX 10 4 0 15
BITMAP
F6C0
27C0
2540
2440
ENDCHAR
STARTCHAR 215B
ENCODING 8539
SWIDTH 900 0
DWIDTH 25 0
BBX 24 19 1 0
BITMAP
7800E0
F801C0
F803C0
B80380
380780
380700
380E00
FE1E00
FE1C00
003C3C
00387E
0070E6
00F0E6
00E07E
01E07E
01C0E6
0380E7
0780FE
07007E
ENDCHAR
STARTCHAR 215C
ENCODING 8540
SWIDTH 864 0
DWIDTH 24 0
BBX 23 20 1 0
BITMAP
180000
7E01E0
FE01C0
060380
1E0780
1C0700
060F00
E70E00
FE1C00
7E3C00
183878
0078FC
0070CE
00E0CE
01E0FC
01C0FC
03C0CE
0381CE
0700FE
0F00FC
ENDCHAR
STARTCHAR 215D
ENCODING 8541
SWIDTH 900 0
DWIDTH 25 0
BBX 23 20 1 0
BITMAP
FE0000
FE01E0
FE01C0
C003C0
FC0380
FE0780
060F00
EE0E00
FE1E00
7C1C00
003C3C
00787E
0070EE
00F0E6
00E07E
01E07E
03C0E6
0380E6
0780FE
07007C
ENDCHAR
STARTCHAR 215E
ENCODING 8542
SWIDTH 900 0
DWIDTH 25 0
BBX 23 19 1 0
BITMAP
FE01E0
FE01C0
0E0380
0C0780
1C0700
180F00
380E00
301C00
703C00
00383C
00787E
0070E6
00E0E6
01E07E
01C07E
03C0E6
0380E6
0700FE
0F007E
ENDCHAR
STARTCHAR 2212
ENCODING 8722
SWIDTH 576 0
DWIDTH 16 0
BBX 12 3 2 7
BITMAP
FFF0
FFF0
FFF0
ENDCHAR
STARTCHAR 2215
ENCODING 8725
SWIDTH 504 0
DWIDTH 14 0
BBX 13 19 1 0
BITMAP
0078
0070
00F0
00E0
01E0
01C0
03C0
0380
0780
0700
0F00
0E00
1E00
1C00
3C00
3800
7800
7000
F000
ENDCHAR
STARTCHAR 2248
ENCODING 8776
SWIDTH 576 0
DWIDTH 16 0
BBX 11 10 3 3
BITMAP
7CC0
FFC0
C780
0000
0000
0000
78E0
FFC0
FFC0
C100
ENDCHAR
STARTCHAR 2260
ENCODING 8800
SWIDTH 720 0
DWIDTH 20 0
BBX 13 17 4 0
BITMAP
0078
0070
00F0
00E0
FFF8
FFF8
FFF8
0780
0700
0E00
FFF8
FFF8
FFF8
3800
7800
F000
E000
ENDCHAR
STARTCHAR 2264
ENCODING 8804
SWIDTH 576 0
DWIDTH 16 0
BBX 12 18 3 1
BITMAP
0060
01E0
07E0
1FC0
7F00
7C00
7800
7E00
1F80
07E0
03E0
00E0
0020
0000
0000
0000
FFF0
FFF0
ENDCHAR
STARTCHAR 2265
ENCODING 8805
SWIDTH 612 0
DWIDTH 17 0
BBX 12 18 3 1
BITMAP
6000
7800
7E00
3F80
0FE0
03E0
01E0
07E0
1F80
7E00
7800
6000
0000
0000
0000
0000
FFF0
FFF0
ENDCHAR
ENDFONT
